<?xml version="1.0" standalone="no"?>
<!DOCTYPE svg PUBLIC "-//W3C//DTD SVG 20010904//EN"
 "http://www.w3.org/TR/2001/REC-SVG-20010904/DTD/svg10.dtd">
<svg version="1.0" xmlns="http://www.w3.org/2000/svg"
 width="1227.000000pt" height="1280.000000pt" viewBox="0 0 1227.000000 1280.000000"
 preserveAspectRatio="xMidYMid meet">
<g transform="translate(0.000000,1280.000000) scale(0.100000,-0.100000)"
fill="#394f1e" stroke="none">
<path d="M11780 12776 c-106 -31 -213 -90 -260 -144 -42 -47 -80 -146 -80
-206 0 -96 60 -175 176 -233 62 -30 84 -36 143 -37 58 0 75 4 109 26 49 33 77
97 69 159 -11 83 -68 102 -146 49 -24 -17 -50 -30 -58 -30 -42 0 -83 54 -83
107 1 75 80 167 168 197 85 29 230 16 294 -28 40 -26 108 -153 108 -200 0 -38
-76 -199 -127 -269 -24 -32 -53 -57 -92 -76 -77 -39 -217 -82 -266 -82 -22 0
-119 18 -215 40 -260 60 -352 74 -485 74 -99 0 -130 -3 -179 -21 -159 -59
-279 -185 -358 -379 -29 -70 -32 -88 -33 -183 0 -110 22 -206 51 -217 7 -2 28
7 47 21 18 14 48 29 65 32 42 8 55 27 82 109 50 154 123 249 233 303 140 69
254 77 511 36 319 -51 458 -16 631 160 75 77 117 156 144 271 11 50 25 109 31
133 14 59 13 89 -7 142 -32 86 -109 177 -184 216 -56 29 -141 54 -178 53 -20
-1 -70 -11 -111 -23z"/>
<path d="M10160 11874 c-45 -41 -100 -147 -121 -234 -15 -65 -15 -221 0 -304
16 -87 47 -143 100 -181 56 -41 217 -123 258 -131 37 -7 63 16 63 56 0 19 8
33 25 44 14 9 25 23 25 31 0 7 -39 58 -86 112 -98 112 -153 199 -184 293 -20
57 -21 78 -16 170 4 58 8 121 9 140 3 49 -22 50 -73 4z"/>
<path d="M11005 11706 c-73 -18 -106 -38 -163 -101 -47 -52 -92 -140 -92 -183
0 -9 9 -39 19 -67 10 -27 22 -76 26 -107 5 -42 12 -58 22 -58 22 0 76 60 137
154 105 159 220 241 358 256 39 4 75 13 81 20 18 17 -42 66 -104 84 -63 19
-212 20 -284 2z"/>
<path d="M11191 11325 c-70 -20 -107 -43 -163 -103 -59 -63 -80 -104 -82 -160
l-1 -46 44 -8 c25 -4 49 -12 55 -18 20 -20 35 -9 85 59 91 122 154 170 266
201 34 10 61 23 63 31 8 44 -166 72 -267 44z"/>
<path d="M10651 11271 c-82 -77 -96 -231 -22 -231 10 0 39 22 65 50 l46 49 0
81 0 80 -29 0 c-18 0 -40 -11 -60 -29z"/>
<path d="M10814 11112 c-48 -36 -107 -100 -131 -144 -21 -40 -24 -152 -4 -187
l14 -25 40 45 c22 24 64 71 93 103 54 59 54 60 56 128 1 37 2 76 2 85 2 28
-27 26 -70 -5z"/>
<path d="M10132 11039 c7 -21 76 -40 128 -37 l45 4 -40 18 c-53 25 -139 34
-133 15z"/>
<path d="M11373 11030 c-143 -30 -256 -139 -256 -248 0 -37 5 -49 43 -87 24
-25 50 -45 57 -45 7 0 31 29 53 64 73 116 167 187 298 226 39 12 72 26 72 32
0 17 -105 57 -165 62 -33 3 -79 1 -102 -4z"/>
<path d="M9760 11011 c0 -25 30 -69 65 -95 39 -30 190 -104 270 -132 99 -35
477 -27 514 11 15 15 13 19 -21 47 -38 30 -49 63 -28 84 14 14 2 42 -21 49
-10 4 -79 1 -153 -5 -153 -13 -394 0 -506 26 -109 26 -120 27 -120 15z"/>
<path d="M10930 10919 c-108 -74 -140 -125 -140 -223 0 -69 15 -116 36 -116 7
0 30 15 50 33 34 29 44 32 116 36 85 3 90 8 64 59 -14 27 -29 100 -41 195 -7
57 -21 60 -85 16z"/>
<path d="M10497 10730 c-101 -26 -221 -117 -270 -208 -59 -108 -97 -317 -60
-329 6 -2 50 34 96 81 147 146 229 187 416 206 139 15 150 32 71 113 -36 36
-50 59 -50 79 0 19 -8 33 -26 45 -31 20 -122 26 -177 13z"/>
<path d="M10135 10692 c-16 -11 -36 -27 -44 -36 -20 -24 -1 -36 57 -36 43 0
108 34 141 74 12 14 6 16 -55 16 -49 0 -78 -5 -99 -18z"/>
<path d="M11440 10701 c-75 -24 -140 -84 -140 -128 0 -27 62 -117 83 -121 9
-2 25 13 41 40 51 87 127 138 228 152 58 9 67 20 32 43 -20 13 -51 18 -123 20
-53 1 -107 -1 -121 -6z"/>
<path d="M10944 10569 c-15 -16 -19 -36 -19 -88 0 -89 20 -119 130 -206 50
-38 118 -97 152 -131 80 -80 97 -131 91 -278 -3 -88 -8 -109 -35 -166 -79
-166 -288 -343 -508 -431 -94 -37 -113 -29 -66 28 28 34 40 63 25 63 -3 0 -43
-18 -87 -40 -84 -41 -231 -78 -263 -66 -13 5 -3 19 50 69 43 41 66 70 66 85 0
27 -10 28 -41 3 -39 -30 -101 -58 -166 -75 -66 -17 -193 -22 -193 -7 0 6 36
38 80 72 44 34 80 65 80 70 0 4 -26 -1 -57 -12 -100 -35 -216 -59 -281 -59
-73 0 -152 17 -152 34 0 6 29 26 65 44 80 42 145 110 145 152 0 37 -8 37 -65
1 -107 -68 -277 -114 -352 -95 -44 11 -56 39 -21 49 64 19 178 139 178 187 0
25 -12 23 -63 -12 -54 -36 -210 -98 -292 -115 -110 -22 -112 -2 -10 90 42 37
80 76 86 87 18 33 -4 40 -41 14 -48 -32 -264 -122 -340 -142 -47 -12 -69 -13
-86 -5 -51 23 -25 51 135 150 94 58 119 81 88 81 -7 0 -116 -33 -243 -74 -360
-117 -487 -144 -513 -112 -12 14 -9 21 26 54 53 51 93 68 209 92 54 11 100 22
102 25 3 3 -35 5 -85 5 -68 0 -121 -8 -209 -30 -141 -36 -367 -109 -478 -156
-43 -18 -83 -31 -87 -28 -34 21 22 82 123 134 94 48 138 77 138 90 0 12 -53
-4 -210 -62 -179 -66 -251 -105 -352 -190 -98 -82 -123 -97 -140 -80 -22 22
21 81 107 146 65 50 76 62 58 64 -47 7 -204 -77 -282 -152 -24 -22 -96 -102
-161 -176 -64 -74 -127 -144 -139 -154 -32 -29 -45 -9 -26 37 21 50 18 67 -5
37 -24 -30 -94 -204 -117 -292 -19 -72 -21 -268 -4 -405 17 -132 116 -305 222
-385 70 -53 241 -135 311 -149 56 -11 107 0 115 26 1 6 -50 36 -115 67 -64 31
-136 73 -160 93 -73 63 -126 175 -142 297 -10 80 -15 89 -34 62 -12 -15 -17
-16 -27 -7 -21 20 6 230 40 319 31 78 133 242 159 251 8 4 20 -1 27 -11 11
-15 18 -9 64 49 73 93 256 235 282 220 6 -4 8 -18 5 -31 -9 -34 6 -31 117 22
102 47 278 98 309 88 10 -3 18 -12 18 -19 0 -24 14 -25 116 -4 59 13 143 22
209 22 l110 2 -3 -27 c-2 -23 1 -28 20 -28 13 -1 79 -5 148 -10 102 -7 136
-13 182 -34 31 -15 114 -40 184 -55 119 -27 145 -39 156 -72 2 -5 84 -27 183
-49 235 -53 285 -67 285 -84 0 -8 -13 -17 -30 -21 -16 -4 -30 -10 -30 -15 0
-15 46 -21 223 -29 99 -5 183 -13 189 -19 15 -15 3 -29 -33 -36 -28 -5 -30 -8
-18 -22 12 -15 33 -16 184 -10 93 4 184 8 200 9 25 2 31 -2 33 -21 3 -22 7
-23 40 -17 81 14 494 158 549 192 96 57 240 171 298 236 33 36 74 100 101 152
93 189 111 357 56 522 -59 176 -138 309 -214 361 -88 60 -236 83 -274 41z"/>
<path d="M10526 10414 c-64 -23 -151 -102 -133 -120 13 -13 136 21 188 52 31
18 68 38 82 43 15 6 27 17 27 26 0 20 -109 20 -164 -1z"/>
<path d="M10731 10373 c-65 -32 -157 -120 -196 -187 -55 -95 -86 -236 -51
-236 7 0 41 36 75 79 121 157 231 209 411 194 81 -7 88 2 31 40 -21 14 -60 51
-87 81 -44 51 -51 56 -89 56 -24 0 -63 -11 -94 -27z"/>
<path d="M10849 10157 c-25 -7 -60 -23 -77 -36 -31 -22 -58 -58 -50 -67 3 -2
43 10 89 26 47 16 127 34 179 40 52 6 96 13 99 15 27 27 -161 44 -240 22z"/>
<path d="M10987 10056 c-38 -12 -76 -30 -85 -39 -15 -16 -10 -17 76 -17 107 0
155 -18 194 -72 20 -29 23 -44 22 -126 -1 -107 11 -109 47 -7 43 122 20 219
-61 262 -55 29 -106 29 -193 -1z"/>
<path d="M11386 9539 c-80 -135 -277 -296 -541 -442 -113 -62 -176 -84 -355
-124 -98 -22 -145 -27 -220 -25 -52 1 -152 -5 -222 -14 -70 -8 -132 -13 -138
-9 -8 5 -6 14 4 30 l15 22 -142 7 c-179 9 -293 28 -321 54 -31 29 -58 35 -186
41 l-115 6 3 29 3 28 -57 -7 -57 -7 7 26 6 26 -57 -6 c-32 -3 -101 -8 -153
-12 l-95 -7 -3 -51 c-2 -33 2 -55 10 -62 8 -6 72 -27 143 -46 72 -20 165 -49
208 -66 91 -35 87 -34 87 -15 0 42 56 28 158 -39 80 -52 129 -69 119 -42 -12
30 16 28 116 -9 54 -19 110 -35 125 -35 l26 0 -34 30 -35 29 37 1 c52 0 303
-37 364 -55 28 -8 85 -30 128 -50 42 -19 79 -35 82 -35 2 0 4 15 4 34 0 19 5
38 11 41 6 4 72 8 147 9 134 2 177 9 166 27 -3 5 -16 9 -29 9 -33 0 -41 18
-13 29 13 5 72 19 132 31 59 12 124 27 144 34 36 13 36 13 14 25 -12 6 -22 16
-22 21 0 5 54 37 120 71 132 68 159 89 116 89 -14 0 -26 4 -26 8 0 4 45 49 99
100 101 94 180 189 227 275 28 53 29 75 0 26z"/>
<path d="M8440 9453 c1 -38 56 -83 103 -83 58 0 34 72 -30 89 -54 15 -73 14
-73 -6z"/>
<path d="M8624 9414 c14 -77 26 -104 53 -110 32 -9 55 5 68 40 15 43 -27 89
-94 102 l-34 7 7 -39z"/>
<path d="M7880 9430 c-52 -4 -115 -13 -140 -20 -82 -22 -174 -78 -250 -153
-91 -89 -151 -180 -187 -283 -24 -71 -27 -93 -27 -214 0 -258 63 -388 231
-470 58 -29 72 -32 127 -28 34 3 75 12 92 21 l29 16 -50 21 c-128 55 -157 73
-194 120 -84 107 -112 215 -94 369 26 225 192 416 417 478 134 36 391 34 479
-5 58 -26 152 -113 179 -166 72 -140 -116 -317 -250 -236 -41 25 -48 43 -35
91 13 50 -7 70 -75 77 -60 5 -121 -19 -180 -73 -73 -65 -79 -140 -17 -212 44
-52 104 -87 182 -107 170 -44 345 9 490 149 83 81 97 116 97 240 0 132 -48
193 -220 282 -172 89 -362 122 -604 103z"/>
<path d="M8805 9365 c-3 -30 -3 -64 0 -76 6 -18 12 -20 43 -14 44 8 89 33 97
53 13 34 -58 92 -114 92 -15 0 -20 -10 -26 -55z"/>
<path d="M9000 9343 c0 -21 -3 -49 -7 -62 -6 -23 -5 -24 36 -18 52 7 91 31 91
57 0 21 -35 43 -87 55 -33 7 -33 6 -33 -32z"/>
<path d="M9170 9294 c-6 -14 -11 -40 -13 -57 -2 -31 -1 -32 33 -29 43 3 80 27
80 50 0 25 -41 62 -68 62 -15 0 -26 -9 -32 -26z"/>
<path d="M9332 9263 c-5 -10 -13 -33 -17 -51 l-7 -33 59 3 c54 3 58 5 61 29 5
46 -76 91 -96 52z"/>
<path d="M9484 9174 c-13 -30 -13 -38 -2 -45 12 -8 62 -3 81 8 15 9 6 42 -15
57 -34 24 -48 20 -64 -20z"/>
<path d="M7995 9163 c-11 -3 -55 -19 -99 -35 -66 -26 -82 -28 -101 -18 -28 15
-61 -1 -132 -64 -100 -90 -197 -286 -191 -385 4 -56 20 -57 30 -1 12 71 82
164 166 222 25 17 81 46 124 64 44 18 103 51 131 72 84 64 114 76 192 77 63 0
76 -3 123 -34 59 -37 121 -55 164 -46 59 13 57 77 -4 116 -31 19 -44 20 -190
16 -125 -3 -160 -2 -169 9 -6 8 -14 13 -18 13 -3 -1 -15 -4 -26 -6z"/>
<path d="M9610 9124 c-14 -36 -14 -36 27 -32 28 2 39 8 41 22 8 40 -53 49 -68
10z"/>
<path d="M9746 9104 c-10 -27 -7 -54 8 -54 7 0 26 10 41 22 26 20 27 22 9 35
-24 18 -51 16 -58 -3z"/>
<path d="M9844 9084 c3 -9 6 -20 6 -25 0 -5 11 -9 25 -9 29 0 36 34 9 44 -29
11 -46 7 -40 -10z"/>
<path d="M9396 8747 c-19 -14 -17 -16 33 -41 123 -63 218 -196 140 -196 -12 0
-84 20 -160 45 l-138 45 -148 -1 c-81 0 -157 -4 -168 -9 -18 -7 -16 -10 18
-24 21 -9 35 -20 33 -25 -3 -5 -50 -12 -103 -15 -197 -13 -224 -21 -162 -46
16 -7 26 -16 22 -20 -4 -4 -53 -12 -108 -18 -55 -6 -124 -19 -153 -27 -45 -14
-52 -19 -41 -31 6 -8 10 -17 7 -19 -2 -3 -40 -12 -84 -21 -43 -9 -95 -24 -115
-34 -19 -10 -64 -23 -100 -30 -121 -21 -191 -47 -253 -96 -33 -26 -54 -50 -49
-55 17 -17 459 84 661 151 109 36 359 99 522 132 96 19 146 23 305 23 217 -1
338 -18 584 -86 79 -21 148 -39 153 -39 4 0 8 9 8 20 0 35 31 22 86 -37 43
-47 54 -55 59 -40 11 26 32 21 65 -16 16 -18 53 -46 82 -62 77 -41 185 -124
249 -192 66 -69 112 -139 178 -271 l48 -97 6 -157 c8 -209 -5 -356 -44 -504
-51 -190 -54 -171 40 -249 45 -38 81 -74 81 -80 0 -32 -36 -45 -122 -45 -142
0 -139 -41 5 -76 99 -25 171 -10 323 65 100 50 130 70 175 119 54 59 111 146
124 191 11 35 -5 23 -73 -55 -106 -124 -193 -163 -256 -113 -55 43 -26 110
115 264 114 124 169 200 209 289 56 123 83 277 32 179 -30 -57 -115 -158 -164
-194 -63 -45 -128 -33 -128 24 0 12 44 114 99 227 143 297 171 372 184 495 10
103 4 164 -19 172 -6 2 -21 -53 -37 -132 -15 -75 -38 -160 -52 -188 -59 -126
-206 -197 -270 -132 -31 30 -31 46 0 189 14 64 25 146 25 183 0 150 -36 336
-74 388 -13 18 -14 8 -14 -95 2 -158 -33 -245 -109 -277 -31 -12 -38 -12 -58
1 -21 14 -102 167 -120 226 -20 66 -72 148 -140 218 -68 72 -178 152 -191 139
-3 -3 5 -34 19 -69 34 -87 42 -148 23 -192 -14 -35 -24 -41 -56 -36 -23 3 -66
47 -141 146 -100 133 -227 210 -364 221 l-60 5 45 -40 c59 -51 98 -108 115
-166 27 -91 -7 -99 -111 -28 -38 26 -96 70 -129 96 -122 100 -307 163 -359
123z"/>
<path d="M6830 8417 c0 -116 3 -135 26 -195 38 -97 37 -96 122 -57 39 19 72
38 72 44 0 6 -25 38 -54 71 -68 76 -123 159 -147 219 l-18 46 -1 -128z"/>
<path d="M9168 8379 c-41 -23 -6 -69 41 -54 19 6 34 41 25 57 -7 11 -45 10
-66 -3z"/>
<path d="M9327 8383 c-24 -23 9 -31 39 -8 18 14 18 14 -7 15 -14 0 -29 -3 -32
-7z"/>
<path d="M9460 8380 c0 -6 11 -16 25 -22 20 -9 28 -9 38 1 9 9 9 14 -3 21 -20
13 -60 13 -60 0z"/>
<path d="M9633 8373 c-7 -3 -13 -11 -13 -19 0 -10 13 -14 45 -14 40 0 58 11
38 23 -16 9 -58 15 -70 10z"/>
<path d="M8989 8341 c-29 -24 -17 -42 30 -43 42 -1 56 13 42 41 -14 26 -42 27
-72 2z"/>
<path d="M8843 8320 c-18 -11 -33 -24 -33 -30 0 -17 40 -31 83 -28 38 3 42 5
39 28 -8 53 -36 63 -89 30z"/>
<path d="M8696 8279 c-42 -33 -32 -62 27 -73 64 -13 74 -1 45 52 -26 48 -35
50 -72 21z"/>
<path d="M9333 8270 c6 -16 8 -32 4 -36 -4 -4 -35 2 -70 14 -34 12 -75 22 -91
22 -28 0 -28 -1 -11 -13 31 -23 8 -37 -60 -37 -82 0 -195 -23 -265 -54 -30
-14 -94 -37 -142 -51 -59 -17 -99 -36 -127 -59 -23 -19 -58 -40 -79 -46 -45
-15 -230 -105 -256 -125 -11 -8 -17 -17 -14 -21 4 -3 98 19 210 50 572 155
699 179 1023 192 230 9 391 -6 544 -51 311 -91 570 -216 699 -339 24 -22 58
-68 75 -101 26 -50 32 -56 35 -37 4 27 -75 194 -138 292 -59 91 -88 120 -122
120 -21 0 -44 14 -84 52 -50 48 -56 50 -78 38 -29 -15 -44 -7 -62 34 l-13 31
-1 -27 c0 -33 -9 -58 -21 -58 -5 0 -37 23 -71 51 -91 73 -163 112 -193 105
-17 -4 -42 2 -75 19 -31 16 -66 25 -94 25 -25 0 -57 5 -72 10 -42 16 -39 5 7
-26 24 -16 41 -33 38 -39 -8 -18 -53 -8 -184 43 -71 28 -132 48 -134 46 -2 -2
4 -13 14 -24 31 -35 -8 -35 -103 -1 -48 17 -90 31 -94 31 -3 0 -1 -13 5 -30z"/>
<path d="M7800 8240 c-129 -44 -296 -132 -385 -203 -98 -77 -151 -138 -290
-332 -133 -184 -190 -252 -229 -272 -27 -14 -31 -14 -43 3 -35 48 -7 147 107
379 57 116 97 182 144 240 41 50 61 81 53 83 -27 6 -128 -40 -185 -83 -91 -68
-232 -196 -283 -256 -71 -83 -139 -189 -229 -359 -168 -313 -186 -336 -215
-266 -44 104 9 407 111 643 41 95 56 163 35 163 -15 0 -90 -87 -135 -157 -99
-154 -130 -237 -275 -736 -55 -188 -110 -371 -123 -406 -25 -70 -47 -93 -75
-75 -61 38 -81 143 -65 338 12 140 37 243 96 386 19 47 32 87 29 90 -8 8 -77
-74 -126 -149 -98 -148 -147 -277 -196 -512 -16 -80 -34 -156 -39 -170 -10
-25 -44 -59 -75 -76 -14 -7 0 -17 73 -50 52 -24 92 -37 96 -32 3 6 3 45 -1 87
-9 101 10 345 35 449 23 97 87 243 106 243 18 0 18 -3 -11 -101 -39 -131 -51
-285 -37 -506 7 -104 16 -201 20 -218 6 -22 32 -47 102 -97 121 -87 178 -144
247 -245 31 -45 59 -80 64 -78 4 3 22 40 39 83 85 204 131 288 151 276 5 -3 9
-34 9 -69 0 -35 4 -66 8 -69 5 -3 19 27 31 67 30 91 62 156 116 233 81 113
107 111 74 -4 -28 -99 -19 -112 20 -27 28 61 53 90 195 232 150 151 196 185
196 149 0 -8 -21 -45 -46 -81 -25 -37 -43 -70 -39 -73 9 -9 83 67 124 128 21
30 52 86 69 123 19 42 37 67 44 64 17 -5 11 -46 -18 -128 -13 -36 -24 -70 -24
-73 0 -17 27 14 104 118 46 61 92 119 102 128 18 15 85 48 99 48 12 0 4 -33
-19 -78 -30 -60 -40 -92 -28 -92 4 0 40 25 78 56 83 67 130 92 144 78 7 -7 1
-23 -20 -49 -31 -39 -39 -65 -19 -65 6 0 38 18 70 39 65 43 140 75 207 86 50
8 54 -3 17 -47 -45 -53 -32 -60 60 -28 82 28 95 27 95 -10 0 -18 6 -33 15 -36
8 -3 58 3 112 15 79 17 373 61 405 61 21 0 3 54 -47 135 -72 118 -105 220
-105 328 0 123 11 151 94 232 58 58 163 131 210 148 6 3 7 8 3 13 -15 16 -170
-25 -252 -65 -44 -23 -134 -83 -200 -136 -146 -117 -195 -147 -232 -143 -22 2
-29 9 -31 31 -5 38 36 121 93 190 63 76 207 196 284 237 34 18 61 37 61 41 0
14 -77 10 -140 -6 -84 -22 -221 -81 -287 -124 -32 -21 -121 -97 -198 -169
-151 -142 -213 -184 -242 -166 -52 32 -56 149 -8 244 55 110 238 299 387 401
31 21 60 43 63 49 11 18 -37 10 -125 -20z"/>
<path d="M8532 8234 c-34 -23 -28 -50 13 -64 46 -15 65 -7 65 28 0 50 -35 66
-78 36z"/>
<path d="M8370 8161 c-13 -25 -13 -27 6 -45 8 -9 31 -16 50 -16 27 0 34 4 34
20 0 26 -34 60 -60 60 -10 0 -24 -9 -30 -19z"/>
<path d="M8220 8130 c-8 -16 -8 -22 4 -26 26 -10 51 1 54 24 3 18 -1 22 -22
22 -15 0 -30 -8 -36 -20z"/>
<path d="M8093 8119 c-24 -9 -47 -44 -38 -59 8 -13 41 -13 66 0 39 21 14 75
-28 59z"/>
<path d="M7277 8072 c-21 -23 -22 -62 -3 -62 25 0 70 45 63 63 -8 22 -40 22
-60 -1z"/>
<path d="M7921 8064 c-34 -28 -40 -51 -15 -61 29 -11 64 14 64 46 0 41 -13 45
-49 15z"/>
<path d="M7161 8054 c-24 -31 -26 -44 -8 -44 16 0 57 42 57 58 0 21 -28 13
-49 -14z"/>
<path d="M7750 8030 c-37 -35 -36 -61 3 -74 42 -15 61 2 65 58 3 40 1 46 -16
46 -11 0 -34 -13 -52 -30z"/>
<path d="M9285 8020 c-79 -8 -288 -40 -413 -61 -35 -6 -60 -15 -55 -19 4 -5
132 -10 283 -12 300 -5 267 0 455 -72 22 -8 50 -15 61 -16 12 0 29 -11 38 -25
16 -25 19 -25 149 -25 136 0 201 -11 210 -34 7 -17 0 -26 -45 -60 -31 -23 -36
-31 -28 -46 5 -10 7 -31 4 -47 -6 -28 -4 -30 48 -42 53 -13 56 -12 117 19 l63
31 -59 63 c-32 35 -66 75 -76 90 -19 28 -84 65 -152 86 -50 15 -63 26 -48 41
8 8 50 6 152 -6 78 -8 148 -18 156 -21 19 -8 19 -30 0 -38 -27 -10 -16 -23 24
-30 21 -3 68 -15 105 -26 70 -22 81 -38 45 -64 -20 -14 -20 -15 -2 -24 10 -5
43 -17 73 -27 88 -28 166 -74 216 -127 53 -57 49 -75 -19 -80 l-42 -3 37 -18
c47 -24 72 -52 64 -73 -5 -13 -14 -15 -39 -10 -17 4 -48 10 -67 13 l-35 6 58
-53 c34 -31 57 -60 57 -72 0 -18 -4 -20 -40 -14 -22 3 -40 3 -40 0 0 -4 29
-34 64 -68 100 -95 111 -183 25 -200 -36 -7 -59 -23 -59 -40 0 -16 86 -68 107
-64 40 7 94 238 94 404 0 177 -32 274 -124 371 -128 136 -315 238 -597 328
-180 57 -241 66 -470 70 -118 2 -251 0 -295 -5z"/>
<path d="M7154 7869 c-20 -22 -23 -28 -8 -19 18 11 50 50 41 50 -2 0 -16 -14
-33 -31z"/>
<path d="M7633 7840 c-54 -11 -79 -25 -99 -55 -39 -60 26 -73 122 -25 33 16
73 43 89 60 l29 30 -50 -1 c-27 -1 -68 -5 -91 -9z"/>
<path d="M3525 7815 c-105 -28 -267 -85 -427 -150 -324 -133 -531 -280 -879
-626 -173 -172 -218 -224 -206 -236 4 -3 28 8 54 25 135 86 423 174 423 129 0
-7 -46 -62 -101 -123 -56 -60 -119 -135 -140 -166 -58 -85 -142 -252 -129
-256 7 -3 31 9 54 26 64 46 152 88 247 116 118 36 240 59 252 47 15 -15 1 -27
-50 -46 -69 -25 -144 -70 -173 -101 l-25 -27 25 8 c160 48 290 65 494 65 133
0 302 -22 321 -41 19 -19 -19 -29 -110 -29 -114 0 -265 -35 -265 -60 0 -4 75
-7 168 -7 198 2 265 -12 462 -93 116 -48 133 -52 244 -61 126 -9 154 -19 115
-39 -16 -9 -70 -11 -196 -8 -95 3 -173 2 -173 -2 0 -14 47 -48 75 -54 124 -25
330 -25 430 0 38 10 32 -15 -17 -63 -49 -48 -82 -63 -121 -56 -15 3 -27 1 -27
-5 0 -6 35 -13 78 -16 255 -19 409 -47 428 -77 12 -21 -19 -27 -170 -34 -83
-4 -162 -12 -176 -17 -22 -9 -15 -13 60 -29 100 -22 209 -72 268 -124 38 -33
55 -65 34 -65 -5 0 -41 11 -80 25 -114 40 -146 32 -68 -18 68 -43 226 -220
226 -254 0 -4 10 -21 23 -37 23 -29 24 -29 171 -37 81 -5 172 -15 203 -23 148
-39 199 -141 137 -271 -48 -103 -154 -158 -261 -136 -70 14 -121 38 -128 61
-10 31 20 86 49 94 31 8 66 -8 66 -29 0 -21 34 -19 53 3 23 25 21 55 -4 78
-17 15 -36 19 -99 19 -73 0 -81 -2 -109 -29 -79 -75 -97 -196 -39 -261 56 -65
230 -135 332 -135 28 0 81 11 119 24 210 75 357 268 357 471 -1 117 -70 207
-222 285 -147 76 -178 108 -91 95 170 -25 417 -160 558 -304 27 -28 52 -51 56
-51 10 0 63 93 85 148 l17 44 -59 60 c-32 32 -86 80 -119 105 -102 78 -427
225 -592 268 -70 18 -85 31 -59 51 24 17 45 17 174 -1 141 -20 210 -39 332
-92 131 -57 234 -113 311 -169 32 -24 63 -44 69 -44 12 0 52 44 88 94 l27 39
-47 42 c-56 50 -267 194 -341 232 -28 14 -124 54 -211 87 -173 66 -197 84
-156 116 36 27 116 51 195 57 58 5 88 1 162 -21 190 -54 352 -138 458 -238 73
-68 88 -58 35 25 -90 143 -317 318 -491 380 -141 49 -305 95 -434 121 -214 43
-270 69 -246 114 15 29 89 42 239 43 70 1 138 4 152 8 l25 7 -25 17 c-86 56
-175 78 -466 112 -247 29 -307 42 -312 69 -5 21 63 88 118 116 104 53 304 66
442 29 84 -23 101 -20 74 9 -43 49 -252 124 -436 157 -136 25 -476 31 -645 12
-144 -17 -165 -12 -165 31 0 65 97 166 215 225 103 50 153 62 273 62 86 0 109
3 97 11 -23 17 -171 42 -321 54 -160 14 -249 4 -408 -46 -458 -141 -466 -143
-466 -110 0 25 61 115 115 170 74 75 165 133 294 187 57 24 103 49 102 54 -2
20 -106 15 -196 -10z"/>
<path d="M2761 7750 c-62 -34 -125 -69 -139 -80 -13 -11 -37 -20 -51 -20 -31
0 -65 -30 -122 -105 -50 -66 -73 -73 -63 -19 l7 37 -33 -19 c-19 -12 -48 -46
-73 -89 -61 -104 -87 -130 -87 -85 0 31 -24 24 -62 -18 -34 -37 -49 -71 -81
-172 -8 -26 -21 -46 -30 -48 -14 -3 -17 5 -17 42 0 25 -4 46 -9 46 -13 0 -61
-59 -73 -89 -5 -14 -16 -64 -24 -110 -15 -91 -23 -107 -50 -97 -14 5 -16 16
-10 71 4 36 3 65 -1 65 -14 -1 -75 -89 -88 -128 -7 -20 -16 -82 -20 -137 -8
-117 -17 -145 -44 -145 -25 0 -45 64 -35 115 8 45 -5 45 -46 -2 -62 -70 -75
-114 -74 -245 1 -91 -2 -118 -12 -118 -20 0 -42 38 -55 97 -7 29 -16 53 -20
53 -5 0 -20 -20 -35 -45 -24 -41 -26 -57 -31 -185 -5 -124 -8 -140 -23 -140
-20 0 -30 27 -30 88 0 23 -3 42 -8 42 -10 0 -105 -143 -136 -206 -29 -59 -72
-117 -169 -229 -79 -90 -96 -107 -108 -99 -16 10 -9 47 17 91 14 25 23 47 20
51 -11 10 -100 -92 -140 -162 -56 -96 -91 -106 -67 -18 7 26 16 56 19 67 l5
20 -23 -20 c-26 -23 -70 -108 -94 -182 -10 -29 -26 -63 -37 -75 l-20 -23 4 43
c3 23 2 42 -2 42 -13 0 -70 -107 -89 -170 -24 -79 -57 -259 -49 -267 17 -16
121 78 197 177 74 96 182 200 209 200 30 0 26 -14 -25 -90 -44 -65 -114 -137
-201 -207 -23 -18 -58 -62 -79 -100 -51 -93 -73 -121 -112 -145 -41 -25 -76
-26 -102 -3 -25 23 -25 55 -1 103 10 20 22 53 25 72 l7 35 -24 -29 c-18 -21
-30 -26 -45 -22 -15 5 -24 1 -31 -12 -6 -11 -24 -24 -40 -30 -49 -17 -144
-207 -200 -403 -31 -108 -39 -169 -21 -169 5 0 16 14 25 30 19 37 34 38 66 4
31 -35 109 -85 121 -78 5 3 -4 20 -18 37 -39 47 -58 95 -43 113 18 22 36 17
82 -25 44 -40 125 -86 134 -77 3 3 -11 24 -32 47 -58 65 -83 143 -50 155 10 4
34 -11 65 -40 64 -60 92 -62 50 -4 -30 41 -39 91 -20 103 6 4 36 -16 66 -44
31 -28 62 -51 70 -51 16 0 19 16 4 25 -17 10 -43 111 -36 139 9 35 23 33 61
-11 18 -21 36 -35 39 -32 4 3 1 29 -5 57 -13 56 -3 82 32 82 22 0 23 3 9 50
-14 49 4 122 41 162 38 40 57 27 38 -26 -7 -19 -10 -38 -7 -41 3 -3 27 7 53
24 26 16 69 35 95 42 44 11 49 16 52 43 l3 31 68 -2 c73 -3 76 1 57 53 -9 22
-8 31 4 43 13 12 26 13 76 5 74 -12 79 0 20 47 -22 18 -40 40 -40 50 0 36 62
65 203 94 36 7 26 22 -21 31 -81 15 -75 41 19 75 33 12 59 25 59 29 0 12 -85
22 -124 14 -40 -7 -86 1 -86 16 0 28 137 108 245 144 44 14 57 25 107 94 58
80 186 235 255 310 78 83 100 35 32 -67 -23 -34 -89 -112 -147 -173 -58 -62
-100 -114 -93 -116 31 -10 148 63 227 142 92 92 147 178 285 441 78 148 106
192 162 252 38 40 67 77 65 83 -4 14 -169 -66 -251 -122 -83 -56 -220 -190
-325 -315 -81 -98 -102 -117 -102 -92 0 17 160 285 241 404 134 199 279 366
538 626 141 140 316 304 389 363 72 59 132 109 132 112 0 12 -36 -2 -139 -56z"/>
<path d="M8095 7760 c-27 -11 -58 -29 -67 -41 -21 -25 -24 -89 -5 -89 20 1
161 114 165 133 5 23 -28 22 -93 -3z"/>
<path d="M8754 7766 c-182 -30 -290 -82 -321 -154 -11 -25 -16 -70 -17 -142 0
-125 14 -163 116 -305 90 -125 110 -161 106 -187 -6 -42 -47 -51 -276 -59
-170 -6 -219 -11 -238 -24 -14 -9 -22 -20 -20 -24 3 -5 56 -14 118 -20 464
-49 535 -66 865 -205 100 -42 184 -76 187 -76 19 0 -1 33 -44 72 -53 48 -64
84 -35 108 8 7 15 19 15 26 0 25 -71 93 -129 124 -69 37 -294 224 -375 311
-85 91 -146 177 -146 205 0 44 27 46 166 9 207 -54 272 -82 322 -140 34 -38
41 -79 19 -109 -30 -41 -222 11 -222 59 0 16 6 20 28 18 50 -3 24 32 -31 43
-70 14 -86 -53 -25 -106 33 -30 208 -120 259 -135 26 -7 34 14 34 95 0 69 23
165 51 219 11 23 19 48 16 56 -17 43 -216 141 -359 176 -116 28 -118 29 -88
41 28 11 133 4 261 -18 137 -23 178 -39 253 -99 53 -41 78 -55 102 -55 18 0
45 -6 60 -12 25 -12 29 -10 61 27 47 54 65 92 57 117 -8 27 -203 121 -309 149
-102 27 -341 35 -461 15z"/>
<path d="M9788 7741 c-59 -23 -137 -80 -170 -124 -14 -17 -41 -64 -61 -102
-20 -39 -45 -83 -56 -100 -29 -42 -26 -62 14 -125 50 -77 61 -118 46 -173 -12
-43 -12 -46 34 -132 54 -103 58 -148 13 -153 -38 -4 -68 29 -68 74 0 52 -15
72 -74 98 -52 23 -55 27 -106 127 -45 88 -53 112 -53 160 0 36 5 64 16 80 36
51 7 53 -51 4 -79 -68 -111 -181 -112 -398 l0 -67 66 -64 c64 -62 66 -65 64
-112 -1 -27 -1 -54 -1 -60 1 -7 29 -30 64 -53 34 -22 78 -57 97 -76 l35 -36
-2 -91 -1 -91 88 -126 c106 -150 155 -246 214 -419 54 -158 77 -206 124 -254
33 -34 41 -38 87 -37 71 0 116 18 137 55 11 18 26 81 35 145 14 100 15 134 3
295 -15 210 -10 267 31 402 18 57 32 129 34 175 6 90 22 135 69 187 19 21 40
49 46 62 7 12 34 46 61 73 27 28 64 67 82 89 24 28 46 41 82 51 42 10 50 16
50 36 0 38 -78 72 -182 77 l-85 5 -58 -62 c-32 -33 -70 -85 -84 -115 -42 -88
-92 -137 -110 -107 -3 4 -1 23 5 42 5 19 14 65 19 104 6 38 20 85 31 105 16
26 21 50 20 97 -1 58 1 63 29 83 18 13 33 36 40 60 6 22 23 53 37 71 32 37
115 79 158 79 39 0 60 14 52 34 -10 26 -110 48 -196 44 -86 -4 -163 -35 -270
-107 l-60 -41 6 -79 c5 -74 4 -83 -21 -125 -25 -43 -26 -50 -16 -103 14 -78
13 -122 -6 -175 -33 -98 -78 -98 -90 0 -3 31 -13 74 -21 95 -12 30 -13 46 -4
82 14 55 7 86 -32 148 l-30 49 16 52 c13 39 14 60 7 86 -23 81 1 140 94 230
25 24 46 50 46 57 0 19 -76 16 -132 -6z"/>
<path d="M10145 7709 c-4 -6 -4 -13 -1 -16 8 -8 36 5 36 17 0 13 -27 13 -35
-1z"/>
<path d="M7534 7656 c-10 -8 -16 -18 -12 -21 12 -12 58 4 58 20 0 19 -20 19
-46 1z"/>
<path d="M10220 7634 c0 -9 5 -14 12 -12 18 6 21 28 4 28 -9 0 -16 -7 -16 -16z"/>
<path d="M10360 7431 c0 -13 27 -21 45 -15 25 10 17 24 -15 24 -16 0 -30 -4
-30 -9z"/>
<path d="M10377 7354 c-17 -17 -5 -34 24 -34 24 0 30 4 27 18 -3 17 -38 29
-51 16z"/>
<path d="M10291 7292 c-35 -50 -61 -114 -61 -154 0 -46 10 -48 46 -5 35 41 54
87 54 129 0 54 -14 65 -39 30z"/>
<path d="M10377 7243 c-14 -13 -7 -31 14 -36 29 -8 49 2 49 24 0 14 -7 19 -28
19 -16 0 -32 -3 -35 -7z"/>
<path d="M10494 6830 c-27 -11 -108 -102 -141 -158 -20 -34 -28 -65 -34 -131
-5 -59 -16 -109 -38 -162 -29 -72 -30 -84 -33 -233 l-3 -158 70 -64 c39 -35
103 -90 143 -121 43 -35 72 -65 72 -77 0 -14 -5 -17 -22 -12 -53 15 -108 19
-108 8 0 -6 35 -41 79 -76 84 -70 141 -144 166 -215 28 -80 17 -98 -35 -61
-40 28 -99 52 -111 45 -5 -4 3 -21 19 -39 56 -63 178 -329 166 -360 -9 -22
-22 -20 -61 10 -19 14 -37 24 -40 21 -11 -12 10 -69 46 -124 34 -53 60 -75
144 -127 44 -27 34 -39 -28 -34 -42 4 -64 12 -92 35 -21 16 -48 35 -60 42 -20
10 -23 9 -23 -8 0 -10 13 -48 30 -83 l30 -63 0 -212 c0 -127 -4 -213 -9 -213
-6 0 -18 14 -28 30 -23 39 -31 38 -39 -6 -13 -72 45 -220 117 -299 35 -38 49
-65 34 -65 -11 0 -70 33 -112 61 -49 34 -63 36 -63 9 0 -30 58 -168 90 -216
17 -23 30 -45 30 -48 0 -15 -70 -3 -117 19 -29 13 -53 22 -53 19 0 -3 16 -44
36 -92 28 -67 38 -105 41 -162 6 -114 -14 -126 -77 -44 -38 49 -68 71 -80 57
-4 -4 -3 -44 2 -88 9 -77 4 -349 -9 -428 -12 -80 -58 -23 -89 113 -24 103 -32
76 -41 -145 -8 -171 -9 -180 -28 -180 -14 0 -27 14 -41 43 -19 40 -22 42 -35
26 -16 -20 -16 -127 -1 -337 10 -127 7 -167 -8 -167 -10 0 -60 91 -91 166 -21
49 -25 54 -36 38 -8 -10 -13 -46 -13 -84 0 -126 -36 -246 -93 -308 -34 -37
-45 -28 -52 44 l-7 66 -23 -40 c-12 -22 -49 -75 -81 -118 -32 -44 -82 -117
-110 -164 -63 -104 -79 -105 -60 -6 7 37 6 39 -10 25 -23 -18 -74 -129 -115
-249 -17 -52 -38 -102 -46 -110 -13 -13 -16 -13 -29 5 -11 15 -15 41 -13 102
2 45 0 85 -3 88 -3 4 -45 -45 -92 -108 -111 -149 -257 -279 -283 -253 -4 4 12
44 35 88 32 58 39 77 25 70 -10 -6 -27 -20 -38 -32 -43 -48 -156 -120 -248
-159 -162 -69 -198 -65 -117 14 22 21 38 40 37 42 -7 6 -178 -68 -225 -97 -73
-45 -85 -40 -58 25 8 18 12 36 9 39 -14 14 -166 -88 -250 -167 -29 -27 -58
-47 -65 -45 -8 3 -11 20 -9 51 1 26 0 47 -3 47 -3 0 -29 -21 -57 -46 -29 -25
-73 -55 -98 -66 -66 -28 -240 -88 -257 -88 -19 0 -18 34 1 50 26 22 78 91 72
96 -7 8 -146 -41 -238 -83 -44 -20 -82 -33 -86 -30 -3 4 6 24 21 44 25 36 25
38 7 41 -22 4 -165 -66 -207 -101 -38 -31 -70 -48 -78 -40 -20 20 16 106 67
160 17 18 27 36 24 40 -12 12 -88 -31 -186 -106 -130 -98 -146 -95 -91 21 32
68 34 76 21 97 -7 11 -27 5 -102 -30 -81 -37 -105 -43 -174 -46 -133 -6 -137
18 -16 77 39 18 71 37 71 40 0 4 -36 10 -80 14 -44 3 -115 14 -158 23 -54 11
-102 14 -162 10 -137 -10 -149 22 -28 77 l73 33 -50 7 c-28 5 -99 7 -160 6
-60 -2 -116 -2 -122 -1 -25 2 -12 30 28 62 22 17 37 35 32 40 -5 5 -53 10
-108 11 -116 3 -128 16 -56 58 25 14 46 30 48 37 5 14 -79 43 -123 43 -19 0
-59 -12 -91 -26 -81 -36 -150 -61 -205 -75 -27 -6 -48 -15 -48 -20 0 -4 19
-13 42 -20 101 -27 158 -71 143 -111 -8 -21 -59 -48 -92 -48 -56 0 -106 -22
-155 -67 -27 -26 -47 -51 -45 -57 2 -6 40 -14 85 -17 88 -7 132 -26 132 -60 0
-11 -15 -52 -34 -92 -48 -101 -87 -306 -71 -377 10 -44 24 -33 49 36 31 84 57
124 126 187 128 119 289 151 384 76 37 -29 33 -58 -21 -173 l-48 -101 0 -165
c0 -121 5 -187 18 -249 31 -146 40 -145 52 6 10 123 13 137 50 210 52 103 116
166 240 236 189 106 298 137 365 102 48 -25 46 -45 -13 -173 -67 -142 -92
-221 -118 -372 -23 -133 -38 -417 -22 -407 6 4 16 44 23 89 15 108 62 254 112
350 68 132 170 217 373 314 207 99 377 142 435 112 41 -22 38 -64 -14 -160
-54 -99 -130 -317 -151 -433 -17 -89 -17 -185 0 -186 6 0 19 35 31 78 27 103
36 122 86 196 82 122 194 254 332 392 201 200 320 277 478 309 113 23 144 21
174 -11 34 -37 28 -86 -20 -158 -49 -74 -149 -179 -199 -208 -61 -36 -176
-159 -239 -257 -56 -86 -128 -221 -128 -240 0 -24 17 -6 49 52 62 113 174 201
455 358 273 152 299 171 487 359 160 160 247 259 321 369 19 30 46 50 103 78
91 45 126 47 163 10 24 -24 27 -34 26 -95 0 -57 -7 -81 -37 -145 -84 -177
-162 -264 -389 -433 -92 -69 -168 -130 -168 -134 0 -22 189 77 304 159 104 74
274 237 346 332 111 148 151 229 230 465 74 222 126 314 185 329 40 10 84 -19
108 -72 18 -39 21 -66 21 -157 0 -130 -17 -202 -76 -328 -23 -48 -38 -90 -34
-95 13 -12 135 129 166 193 17 33 40 96 52 140 21 76 23 99 23 425 0 338 0
346 23 394 35 76 69 116 99 116 36 0 163 -100 222 -175 64 -81 201 -174 201
-136 0 5 -18 44 -39 87 -46 94 -196 515 -211 594 -18 92 -15 310 5 370 23 69
81 130 124 130 31 0 34 -4 78 -97 105 -226 124 -263 154 -292 48 -48 141 -90
149 -68 1 5 -18 37 -43 70 -96 131 -113 188 -127 417 -5 91 -14 242 -20 335
-11 191 -23 266 -74 482 -20 82 -36 160 -36 172 0 43 18 61 59 61 36 0 45 -7
111 -77 144 -154 200 -255 221 -399 12 -80 23 -88 49 -38 11 22 16 75 18 223
3 171 1 201 -17 260 -27 88 -114 256 -217 417 -92 144 -100 173 -64 232 26 42
54 42 132 0 112 -60 269 -255 314 -392 16 -47 18 -49 26 -26 16 41 3 267 -19
335 -39 122 -135 238 -330 402 -131 109 -192 184 -200 242 -5 36 -3 42 18 49
37 14 132 -13 244 -68 151 -74 247 -168 290 -282 40 -106 42 -22 3 102 -39
123 -134 284 -227 384 -72 77 -150 126 -389 245 -123 61 -226 119 -229 128
-10 25 10 47 58 62 36 12 58 12 129 2 176 -25 334 -95 428 -188 34 -35 62 -60
62 -57 0 22 -53 97 -112 160 -124 131 -268 227 -457 306 -130 54 -166 76 -166
104 0 37 40 45 198 41 81 -1 147 0 147 3 0 7 -181 120 -245 152 -65 33 -86 38
-111 28z"/>
<path d="M1501 6804 c-39 -28 -166 -188 -218 -275 -27 -46 -75 -129 -106 -184
-58 -105 -88 -142 -106 -130 -6 3 -11 18 -11 32 0 32 70 197 123 288 22 39 42
74 45 79 13 23 -49 -30 -90 -77 -74 -85 -135 -183 -208 -332 -83 -169 -112
-246 -108 -282 3 -28 4 -27 70 35 62 57 71 62 112 62 41 0 48 4 80 43 38 47
78 114 191 327 81 152 170 301 222 373 38 52 40 66 4 41z"/>
<path d="M7505 6790 c-4 -6 5 -34 19 -60 23 -42 26 -56 20 -99 -8 -62 6 -71
70 -47 144 55 110 186 -56 211 -31 5 -48 3 -53 -5z"/>
<path d="M7760 6792 c0 -5 5 -34 11 -65 9 -53 8 -62 -15 -112 -34 -72 -34 -89
1 -80 41 10 110 53 138 87 31 36 32 76 3 113 -32 40 -138 84 -138 57z"/>
<path d="M7950 6762 c0 -14 35 -42 53 -42 20 0 22 21 5 38 -14 14 -58 16 -58
4z"/>
<path d="M8107 6713 c13 -62 7 -137 -16 -181 -26 -52 -26 -52 5 -52 36 0 86
25 120 61 56 59 32 153 -49 190 -62 28 -69 26 -60 -18z"/>
<path d="M7216 6731 c-3 -5 13 -21 36 -36 l41 -27 -6 -89 -7 -89 27 0 c60 0
153 88 153 144 0 32 -29 73 -64 90 -37 17 -171 23 -180 7z"/>
<path d="M8465 6678 c-2 -7 -6 -47 -10 -88 -3 -41 -9 -85 -12 -97 -4 -18 -1
-23 15 -23 50 0 121 102 108 154 -4 17 -21 33 -46 46 -46 24 -49 24 -55 8z"/>
<path d="M8320 6569 c-80 -145 -153 -209 -292 -254 -41 -13 -146 -58 -234
-100 -87 -41 -167 -75 -176 -75 -34 0 -18 38 35 86 30 27 97 74 151 104 138
77 159 98 194 182 36 88 46 128 32 128 -5 0 -16 -13 -24 -29 -35 -66 -107
-111 -290 -177 -65 -24 -139 -56 -164 -70 -58 -34 -286 -255 -338 -328 -70
-99 -89 -47 -37 99 60 165 98 211 246 293 167 92 130 93 -58 2 -130 -64 -234
-144 -312 -241 -35 -43 -51 -77 -79 -169 -52 -168 -104 -316 -118 -336 -55
-75 -55 178 0 325 14 36 42 95 63 132 78 135 59 151 -27 23 -125 -184 -202
-386 -252 -657 -30 -161 -70 -319 -91 -359 -6 -11 -16 -17 -22 -15 -17 6 -13
224 6 310 8 37 11 67 7 67 -14 0 -81 -158 -95 -226 -8 -38 -19 -154 -25 -259
-16 -293 -30 -477 -36 -486 -26 -42 -61 46 -71 178 -3 45 -9 80 -13 78 -16
-10 -21 -80 -29 -395 -6 -271 -11 -333 -25 -375 -32 -91 -44 -88 -57 16 -5 40
-13 77 -18 82 -5 5 -14 -21 -21 -65 -15 -92 -62 -235 -97 -296 -15 -26 -52
-83 -84 -127 -31 -44 -73 -109 -93 -145 -47 -88 -128 -270 -124 -282 2 -5 20
14 40 44 50 72 105 125 118 112 6 -6 1 -23 -17 -49 -14 -21 -41 -80 -59 -132
-19 -51 -45 -115 -58 -141 -33 -65 -254 -349 -351 -451 -68 -71 -76 -83 -52
-77 69 17 18 -37 -198 -210 -230 -185 -345 -236 -585 -264 -52 -6 -99 -15
-104 -20 -4 -4 4 -16 20 -27 24 -15 54 -19 197 -22 229 -4 224 -12 -63 -93
-138 -39 -153 -41 -317 -45 -95 -3 -173 -9 -173 -13 0 -12 129 -67 204 -88
193 -52 -19 -72 -249 -23 -55 12 -145 34 -200 50 -55 16 -102 28 -104 25 -2
-2 28 -34 66 -72 64 -63 133 -160 133 -188 0 -36 -36 -17 -125 65 -64 58 -135
111 -213 157 -64 38 -142 90 -172 115 -73 60 -107 82 -113 72 -9 -15 30 -91
88 -170 30 -42 55 -79 55 -84 0 -44 -170 74 -225 157 -59 88 -103 194 -130
311 -37 157 -45 184 -55 178 -13 -8 -31 -130 -38 -269 -8 -155 -21 -170 -54
-64 -20 63 -23 94 -23 228 0 131 5 186 34 353 19 108 31 201 27 205 -18 17
-67 -95 -115 -261 -14 -49 -30 -87 -36 -85 -18 6 -9 101 18 188 50 161 173
373 316 540 109 129 181 252 181 312 l0 28 -72 -55 c-69 -52 -98 -66 -98 -46
0 5 30 53 67 107 37 55 128 195 203 313 74 118 141 217 149 219 14 5 14 -9 -5
-97 -7 -33 -7 -33 18 -20 14 8 70 52 125 99 130 109 138 127 138 280 0 100 -3
121 -23 158 -22 41 -22 62 0 62 20 0 146 -131 172 -181 15 -27 31 -71 35 -97
7 -51 22 -57 33 -14 18 65 -26 269 -96 451 -66 171 -113 245 -243 383 -57 61
-64 78 -33 78 24 0 160 -127 203 -189 39 -58 46 -39 11 31 -91 180 -239 341
-404 438 -111 66 -303 119 -492 136 l-78 7 0 -56 c0 -66 -22 -190 -44 -240 -8
-20 -29 -57 -46 -82 -17 -25 -30 -51 -28 -57 2 -6 24 -18 48 -27 30 -11 54
-30 75 -58 16 -23 35 -40 40 -39 6 1 11 26 13 54 4 60 20 68 50 25 31 -46 52
-111 52 -163 0 -28 4 -50 9 -50 11 0 20 33 27 109 8 76 17 92 40 69 14 -14 18
-47 24 -188 4 -94 10 -173 13 -177 8 -7 23 31 44 112 20 72 31 91 47 75 16
-16 10 -218 -9 -315 -8 -44 -15 -81 -15 -82 0 -2 6 -3 14 -3 7 0 30 25 50 55
52 78 60 73 53 -35 -18 -251 -102 -451 -255 -606 -44 -45 -75 -67 -134 -91
-140 -60 -249 -39 -315 60 -44 66 -56 116 -51 217 5 102 31 159 95 203 36 26
50 30 119 31 l78 1 11 -40 c11 -36 13 -38 19 -17 12 38 -3 77 -47 119 -52 51
-102 67 -174 59 -112 -13 -207 -90 -266 -214 -30 -63 -32 -74 -32 -177 0 -93
4 -118 23 -159 47 -102 105 -152 247 -212 62 -26 81 -29 163 -28 107 2 120
-11 47 -46 -196 -95 -430 -52 -540 98 -42 57 -90 168 -114 265 -18 72 -19 72
-31 42 -18 -44 -24 -180 -12 -258 13 -83 57 -180 106 -235 46 -51 160 -111
234 -122 33 -6 95 -6 147 -1 50 4 94 6 98 4 14 -8 -25 -44 -73 -68 -70 -35
-146 -49 -265 -49 -93 0 -116 3 -150 21 -63 33 -121 88 -167 159 -48 73 -60
65 -28 -17 56 -143 113 -214 214 -264 43 -22 64 -25 150 -25 121 0 176 -8 176
-25 0 -8 -48 -28 -117 -50 -65 -20 -144 -51 -176 -68 -145 -76 -249 -264 -279
-501 -11 -93 1 -206 23 -206 5 0 9 6 9 13 2 63 42 231 67 282 61 119 155 226
180 202 3 -4 -12 -46 -35 -95 -43 -92 -81 -213 -103 -320 -18 -92 -6 -316 21
-412 27 -96 120 -274 134 -259 3 2 -5 49 -17 104 -16 77 -21 136 -22 260 0
144 2 165 22 208 12 26 27 47 32 47 14 0 11 24 20 -195 9 -226 10 -229 152
-477 107 -186 114 -206 124 -309 7 -78 18 -110 32 -95 4 4 8 94 8 199 -1 183
-2 195 -28 266 -27 75 -33 111 -19 111 8 0 124 -204 155 -273 10 -21 36 -104
58 -184 44 -160 73 -229 118 -284 42 -51 301 -225 301 -203 0 3 -26 32 -58 63
-59 58 -118 154 -168 276 -25 61 -28 83 -29 175 0 124 13 137 49 47 29 -69 54
-103 169 -227 154 -165 223 -215 384 -276 98 -37 249 -74 297 -73 l41 0 -30
14 c-16 8 -55 21 -86 29 -101 28 -228 130 -330 266 -53 71 -66 97 -52 111 14
14 43 -1 228 -121 204 -131 244 -153 360 -193 251 -87 398 -101 545 -51 l85
28 -126 7 c-193 11 -372 67 -517 162 -44 29 -94 60 -111 69 -31 17 -42 38 -18
38 7 0 95 -25 197 -56 224 -67 306 -78 510 -71 120 5 176 12 247 31 98 27 232
77 273 102 24 14 23 15 -25 10 -27 -2 -90 -12 -140 -22 -58 -11 -138 -17 -225
-18 -127 0 -142 2 -259 37 -119 36 -254 94 -255 110 -1 4 96 9 214 11 201 4
410 21 561 45 79 13 141 34 280 95 87 37 118 46 165 46 68 0 63 11 -15 34 -79
23 -213 20 -375 -9 -227 -41 -378 -43 -340 -5 6 6 38 17 71 25 33 8 96 28 139
46 123 49 188 67 293 79 53 6 134 15 181 21 107 13 170 41 285 129 95 72 132
107 123 115 -3 3 -52 -12 -110 -33 -57 -22 -128 -45 -157 -51 -58 -12 -231
-15 -231 -3 0 4 55 33 122 65 109 53 130 67 203 141 106 108 173 237 135 261
-10 6 -27 -9 -103 -98 -86 -102 -249 -207 -319 -207 -47 0 -32 25 40 68 124
73 209 177 352 422 40 69 87 146 106 171 65 90 153 139 264 148 l75 7 -42 22
c-54 28 -133 29 -210 2 -31 -11 -58 -18 -60 -16 -11 11 20 44 96 101 133 101
157 110 277 109 78 0 101 3 97 12 -6 17 -76 50 -135 65 -56 13 -62 33 -22 70
50 46 140 175 182 259 64 130 93 279 47 240 -8 -6 -17 -21 -21 -33 -13 -42
-88 -157 -102 -157 -10 0 -12 7 -7 28 11 47 114 328 167 455 75 184 109 278
106 296 -2 10 -34 -25 -83 -91 -72 -97 -105 -128 -105 -97 0 25 71 260 100
328 39 95 88 183 134 241 63 80 44 81 -50 5 -41 -34 -71 -52 -76 -47 -17 17
48 127 163 278 27 36 48 69 45 71 -2 3 -26 -10 -51 -27 -60 -41 -76 -31 -51
34 75 196 293 361 530 402 45 8 88 17 96 20 30 11 -19 26 -107 32 -98 8 -113
21 -56 50 66 34 142 45 269 40 175 -8 305 -56 349 -130 20 -35 15 -90 -11
-119 -21 -24 -71 -25 -96 -2 -13 11 -22 13 -29 6 -7 -7 -2 -17 17 -32 58 -46
154 -13 212 73 49 74 41 125 -32 195 -42 41 -45 51 -12 51 70 0 192 -72 227
-134 33 -58 38 -167 10 -220 -11 -22 -18 -42 -16 -45 11 -10 58 37 92 91 46
74 53 129 23 187 -12 24 -19 46 -15 49 13 13 81 -37 128 -94 58 -72 132 -212
152 -291 11 -44 15 -104 13 -229 -2 -162 -1 -172 25 -243 57 -156 149 -253
363 -381 167 -101 207 -136 229 -198 62 -179 -2 -522 -138 -745 -17 -28 -27
-56 -24 -68 10 -37 -14 -90 -62 -137 l-47 -48 -13 -120 c-11 -98 -11 -128 -1
-159 12 -35 74 -115 90 -115 4 0 5 33 2 73 -4 73 -4 74 27 96 17 12 35 20 40
17 5 -3 12 -27 15 -53 13 -93 36 -153 74 -195 40 -44 121 -88 162 -88 l25 1
-32 27 c-44 38 -67 88 -67 149 -1 41 4 56 23 77 22 24 24 30 14 59 -6 17 -10
83 -10 144 2 103 4 114 25 135 l23 23 18 -22 c31 -37 37 -135 15 -215 -3 -10
9 -29 32 -50 45 -41 68 -86 84 -163 6 -33 19 -70 27 -83 34 -55 182 -92 228
-58 18 13 17 15 -21 34 -77 39 -87 66 -74 202 2 25 -5 46 -24 74 -15 22 -26
53 -26 71 0 18 -7 49 -15 68 -17 41 -21 182 -5 192 27 16 81 -45 109 -123 13
-36 25 -50 56 -67 33 -17 43 -29 56 -70 20 -64 44 -78 123 -70 84 7 154 48
186 107 20 39 22 49 11 62 -12 14 -17 13 -53 -5 -50 -26 -76 -17 -112 38 -14
21 -34 49 -45 63 -11 14 -21 33 -21 43 0 41 -38 87 -109 134 -2 1 -4 35 -5 75
-3 74 -24 150 -196 698 -32 102 -63 210 -69 241 -14 68 -37 91 -111 113 -30 8
-66 23 -79 32 -49 35 -66 138 -36 211 8 20 39 66 68 102 29 36 73 95 96 129
54 79 67 73 52 -25 -16 -103 -39 -165 -82 -222 -32 -42 -35 -51 -20 -51 24 0
110 46 142 76 28 27 49 31 49 10 0 -21 -57 -153 -80 -185 -26 -37 -26 -37 10
-77 16 -19 34 -51 41 -73 8 -29 19 -41 36 -46 22 -5 24 -9 17 -33 -20 -62 -9
-135 31 -220 21 -45 42 -82 47 -82 19 0 60 156 83 315 38 259 -8 581 -110 772
-97 183 -332 448 -489 553 -158 105 -418 212 -627 257 -128 27 -408 25 -549
-6 -269 -58 -566 -182 -760 -319 -36 -25 -102 -82 -148 -126 -99 -96 -125 -94
-61 5 130 203 515 482 764 554 164 47 260 58 510 58 263 0 383 -17 568 -77
212 -70 401 -183 633 -381 217 -185 336 -353 423 -597 55 -157 66 -232 66
-448 -1 -268 -34 -464 -129 -768 -39 -123 -42 -150 -25 -251 6 -36 13 -80 15
-97 5 -34 91 -154 110 -154 17 0 51 87 83 212 26 103 45 140 55 106 2 -7 7
-22 11 -33 7 -19 8 -18 15 5 5 14 8 87 9 163 1 154 7 166 60 126 31 -23 92
-31 108 -15 4 4 0 19 -9 34 -56 90 -61 106 -62 187 -1 93 20 405 28 412 11 11
36 -8 63 -48 21 -32 28 -55 28 -91 0 -48 8 -61 19 -32 12 31 5 131 -14 211
-21 86 -98 294 -131 351 -78 136 121 24 238 -133 l22 -30 0 32 c1 48 -35 135
-83 200 -30 42 -73 79 -151 133 -111 76 -215 167 -215 187 0 6 6 13 13 16 23
9 250 -62 339 -107 55 -27 84 -37 78 -27 -24 45 -107 107 -228 171 -73 38
-168 92 -211 120 l-79 51 -63 125 c-63 123 -89 154 -133 154 -26 0 -66 23 -66
37 0 14 6 17 53 27 25 6 27 10 27 59 0 28 -4 57 -8 63 -4 6 -53 14 -109 18
-109 6 -188 20 -213 37 -26 17 17 39 76 39 28 0 72 3 98 6 40 6 47 10 44 28
-8 55 -146 94 -273 77 -38 -5 -122 -17 -185 -26 -85 -12 -122 -14 -142 -6 -38
14 -36 42 7 79 46 41 262 112 364 120 61 4 71 7 57 17 -31 23 -134 38 -224 32
-100 -6 -148 -21 -339 -108 -126 -58 -144 -63 -208 -63 -91 -1 -95 14 -21 87
62 62 106 82 286 128 146 37 153 40 115 49 -60 15 -191 10 -268 -9 -88 -23
-125 -41 -244 -118 -111 -71 -267 -153 -293 -153 -30 0 -24 16 17 47 139 106
183 180 191 323 3 51 1 90 -4 90 -5 0 -29 -37 -54 -81z"/>
<path d="M8627 6643 c-4 -3 -7 -33 -7 -65 0 -54 2 -58 24 -58 39 0 85 21 91
41 15 45 -77 114 -108 82z"/>
<path d="M6996 6625 c-62 -22 -65 -32 -13 -54 55 -24 69 -47 76 -130 7 -80 24
-94 71 -61 37 26 80 110 80 155 0 85 -105 129 -214 90z"/>
<path d="M10585 6590 c-8 -12 20 -24 35 -15 5 3 10 10 10 16 0 12 -37 12 -45
-1z"/>
<path d="M8857 6583 c-4 -3 -7 -17 -7 -30 0 -19 5 -23 29 -23 37 0 44 11 25
38 -15 22 -35 28 -47 15z"/>
<path d="M6756 6494 c-52 -28 -51 -35 6 -53 59 -19 86 -47 104 -107 8 -30 21
-54 27 -54 36 0 87 66 87 110 0 37 -32 91 -64 111 -42 26 -101 23 -160 -7z"/>
<path d="M6617 6320 c-55 -21 -77 -37 -77 -56 0 -14 15 -20 83 -29 45 -6 51
-10 83 -61 51 -79 81 -69 91 29 8 74 -1 104 -37 122 -38 20 -84 18 -143 -5z"/>
<path d="M2253 6304 c-22 -10 -14 -28 21 -51 19 -12 47 -41 63 -65 25 -38 38
-46 114 -73 47 -16 90 -34 97 -38 21 -14 13 -35 -25 -73 -29 -29 -33 -38 -21
-45 21 -12 134 -29 192 -29 l49 0 -6 55 c-12 117 -118 251 -235 296 -56 22
-219 37 -249 23z"/>
<path d="M2025 6236 c-18 -27 -55 -128 -55 -150 0 -7 7 -16 15 -19 19 -8 119
18 175 46 73 36 63 88 -25 128 -56 26 -91 24 -110 -5z"/>
<path d="M2740 6253 c0 -5 25 -37 56 -73 31 -36 67 -87 81 -115 24 -46 25 -55
19 -145 l-7 -96 75 -72 c40 -40 80 -72 87 -72 32 0 105 147 122 244 20 115
-34 221 -137 270 -92 44 -296 84 -296 59z"/>
<path d="M5313 6148 c-33 -16 -29 -24 25 -44 26 -9 79 -30 119 -46 40 -16 80
-28 90 -26 24 4 29 54 8 78 -38 42 -186 65 -242 38z"/>
<path d="M3240 6143 c0 -4 11 -35 25 -68 29 -70 31 -132 9 -218 -18 -71 -43
-122 -79 -166 -24 -27 -25 -32 -10 -37 9 -4 65 -4 123 0 119 7 118 7 188 99
53 71 70 126 55 177 -23 76 -104 155 -194 188 -67 25 -117 36 -117 25z"/>
<path d="M6419 6125 c-40 -21 -107 -90 -97 -100 2 -2 39 -8 82 -14 104 -13
153 -45 181 -119 11 -28 23 -52 27 -52 14 0 39 62 45 110 7 64 -16 129 -63
170 -44 39 -107 41 -175 5z"/>
<path d="M2315 6045 c-162 -30 -287 -89 -435 -205 -115 -91 -224 -150 -242
-132 -9 9 14 38 83 109 95 98 166 189 155 200 -3 3 -56 -29 -118 -70 -70 -47
-160 -96 -237 -129 -69 -29 -126 -58 -128 -63 -2 -6 10 -16 27 -22 48 -18 37
-44 -36 -89 -30 -19 -7 -31 80 -43 44 -6 82 -14 85 -17 3 -3 -10 -18 -29 -34
-31 -25 -33 -30 -20 -46 20 -23 67 -42 180 -73 65 -18 95 -31 95 -41 0 -13
-28 -37 -170 -140 -66 -48 -92 -84 -75 -105 7 -8 21 -15 32 -15 13 0 18 -6 16
-17 -2 -13 -27 -24 -88 -41 -151 -41 -170 -50 -170 -81 0 -35 -17 -51 -54 -51
-33 0 -130 -41 -158 -67 -11 -10 -18 -31 -18 -53 0 -42 -11 -50 -65 -50 -72 0
-122 -35 -161 -112 -21 -41 -33 -52 -87 -76 -34 -16 -76 -44 -92 -62 -17 -18
-54 -57 -83 -87 -87 -90 -54 -115 94 -69 92 29 108 43 76 64 -12 8 -22 21 -22
28 0 21 59 46 130 55 144 17 236 32 259 41 44 17 4 39 -88 47 -84 7 -106 17
-96 43 12 31 58 41 205 45 80 2 165 4 190 5 25 1 83 -1 130 -6 l85 -7 -27 25
c-28 25 -89 46 -195 67 -70 13 -100 30 -89 48 19 30 60 33 241 15 170 -16 186
-17 265 -1 47 9 118 20 158 23 46 5 71 11 69 18 -7 22 -82 36 -245 46 -190 11
-212 15 -212 40 0 22 14 27 234 80 107 25 187 50 215 67 68 40 170 150 224
241 26 45 60 91 75 102 15 11 38 29 52 40 l25 18 -27 7 c-48 12 -74 -3 -184
-105 -124 -116 -200 -160 -276 -160 -26 0 -48 4 -48 8 0 5 17 23 39 40 21 17
110 99 197 183 275 265 355 296 584 224 144 -46 223 -147 222 -285 -1 -145
-98 -250 -231 -250 -86 0 -128 57 -66 90 27 14 24 30 -5 30 -35 0 -74 -44 -74
-83 0 -66 64 -107 167 -107 78 0 151 33 217 100 57 56 87 120 101 213 10 65 9
77 -11 129 -43 115 -157 251 -250 298 -116 59 -360 47 -499 -25 -25 -13 -72
-45 -103 -72 -31 -26 -97 -83 -148 -125 -101 -86 -154 -118 -199 -118 -70 0
-51 24 188 247 74 69 159 141 189 161 67 42 195 95 275 112 61 14 71 24 35 34
-31 8 -50 7 -133 -9z"/>
<path d="M5706 6043 c-3 -4 -6 -28 -6 -56 0 -42 4 -53 30 -75 52 -45 131 -82
152 -71 28 15 24 71 -8 108 -38 45 -153 109 -168 94z"/>
<path d="M3650 5868 c0 -109 -26 -166 -104 -233 -79 -69 -76 -79 27 -72 111 7
210 39 236 76 26 37 46 110 38 142 -16 63 -126 169 -174 169 -22 0 -23 -4 -23
-82z"/>
<path d="M6224 5891 c-42 -19 -124 -86 -124 -101 0 -4 40 -10 90 -12 l89 -3
46 -45 c26 -25 55 -61 65 -81 29 -56 78 -67 106 -23 22 33 23 128 1 169 -17
34 -71 87 -104 104 -34 17 -123 13 -169 -8z"/>
<path d="M10232 5794 c-18 -12 -22 -25 -22 -65 0 -42 3 -50 17 -47 23 4 43 44
43 85 0 39 -10 47 -38 27z"/>
<path d="M3933 5728 c-6 -7 -18 -37 -28 -66 -27 -85 -72 -143 -133 -173 -48
-23 -51 -27 -36 -40 26 -22 214 -25 268 -5 76 29 97 106 52 194 -44 86 -96
124 -123 90z"/>
<path d="M6160 5661 c-86 -27 -195 -108 -272 -199 -39 -46 -171 -304 -222
-434 -14 -37 -42 -124 -62 -195 -50 -179 -83 -281 -109 -333 -58 -114 -159
-196 -179 -144 -4 9 16 58 48 117 96 180 162 399 153 507 -6 69 -42 200 -56
200 -4 0 -11 -40 -14 -90 -7 -99 -35 -234 -66 -322 -22 -65 -49 -107 -107
-169 -94 -101 -110 -101 -84 -2 10 37 15 74 13 80 -3 8 -26 -6 -62 -39 -59
-54 -120 -87 -161 -88 -50 -1 -57 -14 -32 -65 23 -48 28 -75 13 -75 -5 0 -37
31 -71 70 -107 120 -149 132 -227 65 -69 -59 -163 -290 -163 -399 0 -38 3 -44
33 -57 27 -12 33 -21 40 -59 5 -25 11 -55 13 -68 5 -27 44 -44 93 -40 l36 3
-5 50 c-3 28 -5 86 -4 130 1 153 50 198 147 135 142 -95 213 -256 173 -394 -9
-31 -23 -59 -31 -63 -29 -11 -66 8 -95 49 -34 46 -39 95 -14 133 22 33 4 67
-34 63 -26 -3 -27 -5 -30 -73 -4 -96 3 -126 45 -187 20 -29 42 -69 48 -88 9
-25 25 -42 58 -60 68 -38 84 -56 112 -130 14 -38 32 -71 40 -74 33 -12 86 101
112 242 10 51 20 82 28 82 45 0 27 -208 -34 -408 -36 -115 -47 -190 -32 -212
18 -26 119 -18 192 17 73 34 189 126 189 150 0 18 -7 16 -97 -21 -49 -21 -67
-24 -88 -16 -28 10 -29 28 -4 41 8 5 54 26 103 49 76 34 102 53 171 123 69 70
89 99 138 197 55 110 97 218 97 247 0 29 -21 9 -60 -57 -80 -137 -197 -267
-268 -297 -36 -15 -72 -10 -72 11 0 8 29 46 65 86 36 40 65 76 65 81 0 11 2
11 -40 -1 -40 -11 -66 -6 -74 16 -11 28 14 53 75 75 176 64 306 210 369 414
11 39 30 127 41 198 36 235 63 336 120 450 17 32 28 62 24 65 -8 9 -102 -87
-135 -138 -16 -25 -58 -130 -94 -235 -117 -336 -130 -366 -198 -440 -97 -105
-211 -175 -288 -175 -44 0 -69 23 -53 48 5 10 48 40 94 69 109 66 159 123 219
247 62 128 76 180 101 395 39 336 113 548 250 720 45 56 170 151 200 151 9 0
29 -14 44 -32 22 -26 25 -37 20 -72 l-6 -41 19 22 c24 27 35 93 22 127 -17 45
-124 85 -180 67z"/>
<path d="M10270 5555 c-25 -25 -69 -59 -98 -76 -64 -36 -65 -53 -2 -86 67 -36
122 -28 172 26 30 32 38 48 38 77 0 38 -35 104 -55 104 -6 0 -31 -20 -55 -45z"/>
<path d="M2621 5530 c-111 -23 -254 -87 -315 -141 -20 -17 -65 -75 -102 -129
-104 -156 -178 -215 -305 -244 -33 -8 -63 -17 -66 -20 -9 -9 61 -15 227 -20
92 -2 180 -9 198 -16 53 -20 51 -2 -7 52 -58 53 -57 68 4 68 33 0 220 -27 248
-36 33 -10 17 19 -39 70 -49 44 -56 56 -56 88 0 54 38 114 87 138 61 30 135
27 174 -6 17 -14 38 -24 45 -21 28 11 68 77 73 120 9 81 -57 119 -166 97z"/>
<path d="M7453 5495 c-3 -9 -1 -21 6 -28 17 -17 13 -52 -8 -71 -24 -22 -62
-32 -191 -51 -134 -19 -227 -63 -311 -145 -32 -32 -59 -66 -59 -76 0 -14 3
-15 12 -6 20 20 38 14 38 -13 0 -14 -16 -57 -35 -95 -19 -39 -32 -70 -28 -70
5 0 35 32 67 70 33 39 63 70 68 70 4 0 8 -11 8 -25 0 -14 6 -25 13 -25 7 0 48
36 92 80 44 44 85 80 92 80 7 0 13 -11 13 -25 0 -42 13 -34 148 82 40 35 77
63 82 63 6 0 10 -9 10 -20 0 -45 68 -32 118 22 15 16 51 43 79 60 29 16 56 34
59 39 7 11 -82 52 -157 73 -100 27 -109 28 -116 11z"/>
<path d="M7990 5481 c0 -11 4 -22 8 -25 14 -9 35 12 29 28 -9 23 -37 20 -37
-3z"/>
<path d="M4146 5462 c-25 -48 -100 -110 -143 -117 -72 -12 -83 -15 -83 -29 0
-34 146 -122 185 -112 95 24 161 188 104 260 -26 33 -45 33 -63 -2z"/>
<path d="M1170 5464 c-11 -13 -10 -19 9 -37 19 -19 33 -22 116 -23 53 0 98 -3
101 -7 3 -3 -23 -19 -58 -36 -78 -37 -185 -134 -273 -247 -69 -88 -134 -144
-166 -144 -10 0 -26 -11 -34 -24 -9 -13 -26 -27 -39 -30 -12 -3 -28 -20 -37
-38 -9 -21 -22 -34 -36 -36 -16 -2 -25 -13 -31 -35 -8 -31 -30 -50 -101 -89
-19 -11 -31 -25 -31 -38 0 -24 -47 -55 -96 -65 l-34 -6 21 -28 c23 -32 19 -51
-11 -51 -11 0 -25 -12 -32 -27 -10 -21 -21 -29 -48 -31 -44 -4 -57 -16 -40
-37 20 -24 -2 -39 -55 -36 -49 2 -54 -3 -29 -30 23 -25 9 -39 -37 -39 -21 0
-39 -4 -39 -10 0 -5 18 -22 40 -36 35 -23 52 -27 113 -28 77 0 173 19 184 37
3 6 -8 22 -25 37 -18 15 -32 32 -32 39 0 18 21 42 290 331 130 140 280 305
333 366 152 177 250 254 380 297 36 12 66 27 67 32 4 14 -74 52 -145 70 -80
20 -208 20 -225 -1z"/>
<path d="M6092 5343 c-48 -23 -124 -125 -103 -138 5 -3 29 -1 53 5 95 22 168
7 230 -45 37 -31 48 -22 48 44 0 114 -123 186 -228 134z"/>
<path d="M10373 5333 c-35 -15 -63 -32 -63 -39 0 -17 55 -71 81 -79 36 -12 63
25 64 86 0 29 -4 53 -10 55 -5 2 -38 -9 -72 -23z"/>
<path d="M8232 5293 c-47 -94 -29 -133 34 -72 38 37 41 54 18 87 -21 31 -31
28 -52 -15z"/>
<path d="M1087 5314 c-8 -8 -10 -74 -2 -74 11 0 61 26 67 35 14 19 8 25 -16
19 -16 -4 -27 -1 -33 10 -5 9 -12 13 -16 10z"/>
<path d="M1473 5285 c-93 -42 -196 -116 -269 -192 -71 -73 -141 -163 -129
-163 23 0 140 78 165 110 21 27 48 45 91 62 54 20 62 27 74 61 16 48 36 70
100 113 58 39 43 43 -32 9z"/>
<path d="M7971 5291 c-11 -7 -12 -19 0 -75 7 -37 17 -65 23 -63 16 5 51 111
43 130 -7 18 -43 22 -66 8z"/>
<path d="M8350 5250 c0 -52 15 -65 39 -36 9 11 9 22 -3 50 -21 51 -36 45 -36
-14z"/>
<path d="M4284 5248 c-34 -68 -75 -98 -173 -128 -30 -8 -56 -21 -58 -27 -6
-16 73 -100 111 -120 20 -11 44 -14 77 -10 102 12 138 55 142 171 2 53 -2 68
-26 104 -33 50 -51 53 -73 10z"/>
<path d="M7815 5218 c-11 -27 13 -68 38 -68 29 0 69 40 58 58 -12 20 -89 28
-96 10z"/>
<path d="M7625 5210 c-3 -5 4 -41 16 -80 11 -39 19 -80 16 -91 -3 -12 -3 -28
0 -36 4 -11 12 -8 35 14 81 77 77 169 -10 193 -46 12 -49 12 -57 0z"/>
<path d="M944 5149 c-3 -6 -1 -16 4 -21 13 -13 45 8 36 23 -7 12 -31 11 -40
-2z"/>
<path d="M8185 5044 c-104 -106 -156 -146 -172 -130 -11 11 24 73 67 120 22
24 40 48 40 55 0 6 -16 11 -36 11 -39 0 -61 -18 -170 -145 -69 -80 -83 -69
-55 43 25 94 25 102 8 102 -14 0 -58 -64 -107 -159 -20 -37 -53 -79 -80 -101
-193 -163 -208 -172 -217 -143 -2 6 20 39 49 73 84 99 85 100 56 100 -42 0
-111 -55 -217 -175 -101 -113 -126 -131 -138 -99 -10 26 63 155 137 243 39 46
69 86 66 89 -12 12 -104 -57 -143 -108 -102 -131 -235 -315 -250 -344 -21 -43
-62 -96 -74 -96 -14 0 -11 56 5 94 7 18 30 56 51 85 21 28 35 54 32 57 -10 10
-67 -39 -107 -91 -50 -65 -107 -171 -168 -315 -62 -144 -97 -216 -129 -257
-13 -18 -21 -33 -17 -33 3 0 77 69 163 154 210 204 361 315 673 489 221 124
297 153 622 238 126 33 241 66 256 74 48 25 117 215 77 215 -8 0 -32 -22 -52
-49 -41 -53 -81 -79 -98 -62 -7 7 -2 33 17 79 16 38 26 76 25 84 -3 9 -45 -28
-114 -98z"/>
<path d="M7433 5144 c-19 -8 -16 -38 8 -67 11 -15 27 -47 35 -72 9 -25 20 -48
26 -51 21 -13 56 7 73 42 14 30 15 43 6 74 -6 20 -20 45 -31 55 -19 17 -94 30
-117 19z"/>
<path d="M795 5102 c-44 -27 -61 -50 -47 -64 9 -9 16 -7 31 6 14 13 28 16 55
11 38 -8 42 -3 30 43 -8 27 -29 28 -69 4z"/>
<path d="M6030 5085 c-48 -15 -133 -92 -144 -132 -6 -18 -2 -22 22 -28 29 -6
43 -2 199 57 73 27 99 19 96 -27 -3 -43 14 -67 45 -63 23 3 27 8 30 40 4 42
-23 101 -62 137 -32 31 -118 38 -186 16z"/>
<path d="M10445 5059 c-22 -14 -48 -19 -97 -19 -38 0 -68 -4 -68 -10 0 -21 64
-80 103 -95 81 -31 148 29 130 116 -6 34 -25 36 -68 8z"/>
<path d="M7264 5055 c-7 -18 26 -85 50 -99 14 -9 22 -6 42 17 28 32 31 59 8
81 -20 21 -93 21 -100 1z"/>
<path d="M7118 5003 c-24 -6 -22 -31 7 -78 14 -22 25 -47 25 -56 0 -8 6 -24
14 -35 14 -19 15 -19 40 5 14 14 30 40 35 58 22 79 -35 129 -121 106z"/>
<path d="M4384 4929 c-37 -41 -89 -59 -169 -59 -93 0 -97 -12 -25 -81 59 -58
98 -71 158 -53 68 20 72 26 72 120 0 45 -4 85 -9 88 -4 3 -17 -4 -27 -15z"/>
<path d="M6961 4911 c-16 -10 -12 -35 17 -106 12 -27 24 -62 27 -77 7 -36 27
-35 59 2 46 55 47 136 2 165 -30 20 -87 29 -105 16z"/>
<path d="M6857 4823 c-3 -4 -5 -25 -4 -45 1 -24 -7 -48 -21 -67 -26 -36 -27
-44 -6 -62 9 -7 20 -25 26 -39 l10 -25 18 23 c10 12 26 43 36 68 16 42 16 50
3 87 -14 39 -52 76 -62 60z"/>
<path d="M10440 4810 c-47 -11 -34 -80 15 -80 27 0 58 32 53 56 -4 21 -35 33
-68 24z"/>
<path d="M10230 4797 c0 -8 7 -17 15 -21 8 -3 15 -2 15 3 0 5 -7 14 -15 21
-12 10 -15 10 -15 -3z"/>
<path d="M5858 4759 c-13 -7 -18 -23 -18 -59 0 -27 5 -52 10 -55 13 -8 40 55
40 95 0 32 -5 35 -32 19z"/>
<path d="M8280 4704 c-174 -40 -491 -155 -654 -236 -140 -70 -496 -305 -626
-414 -87 -72 -280 -271 -311 -321 -9 -16 -41 -91 -70 -168 -40 -105 -69 -164
-117 -234 -36 -52 -60 -97 -55 -102 10 -10 120 -49 137 -49 6 0 26 22 44 49
43 63 217 231 262 253 19 9 91 43 160 76 69 32 149 78 178 101 55 44 66 69 15
33 -59 -41 -119 -65 -261 -101 -81 -21 -168 -46 -194 -56 -26 -11 -50 -16 -54
-13 -11 11 48 79 136 156 152 133 334 249 485 309 67 26 78 27 245 28 l175 0
65 -32 c94 -46 206 -127 240 -175 66 -90 20 -233 -86 -268 -64 -22 -97 12
-119 121 -3 19 -15 31 -42 41 -49 20 -69 13 -124 -42 -75 -75 -88 -173 -33
-267 35 -61 110 -95 220 -101 76 -4 88 -2 146 25 124 58 239 192 273 316 15
55 15 72 5 123 -35 168 -94 258 -204 312 -240 117 -450 130 -706 42 -134 -45
-130 -44 -130 -27 0 24 176 120 315 172 154 57 234 68 485 63 281 -6 344 -26
473 -146 84 -79 117 -169 117 -319 0 -183 -34 -267 -155 -381 -45 -43 -120
-99 -166 -126 -132 -78 -184 -120 -208 -168 -26 -56 -16 -103 34 -147 42 -37
81 -45 188 -39 69 3 92 9 145 38 75 39 212 179 255 258 74 137 130 379 131
567 1 115 0 122 -29 175 -16 30 -70 96 -120 145 -102 103 -185 152 -380 223
-150 55 -145 53 -145 65 0 17 118 0 245 -37 66 -19 121 -33 122 -32 2 1 -44
35 -102 75 -129 89 -139 113 -31 84 17 -5 18 -1 12 33 -13 70 -53 146 -76 143
-3 0 -52 -11 -110 -25z"/>
<path d="M6096 4711 c-3 -4 -8 -34 -12 -65 l-7 -56 34 -14 c67 -28 74 -26 73
21 -1 66 -66 150 -88 114z"/>
<path d="M10280 4635 c0 -45 29 -86 73 -105 65 -29 109 -34 150 -17 55 24 90
95 63 132 -12 17 -15 17 -61 1 -60 -20 -110 -20 -165 -1 -56 20 -60 19 -60
-10z"/>
<path d="M4390 4639 c-15 -7 -60 -9 -112 -5 -49 3 -88 3 -88 0 0 -18 35 -66
79 -107 55 -52 84 -58 131 -30 39 22 52 51 48 104 -3 48 -15 55 -58 38z"/>
<path d="M6726 4571 c-16 -18 -17 -25 -6 -50 21 -51 36 -57 55 -21 33 65 -5
120 -49 71z"/>
<path d="M1677 4436 c-39 -14 -77 -42 -77 -58 0 -4 25 -8 55 -8 82 0 111 -19
129 -83 37 -138 40 -163 22 -206 -9 -23 -16 -59 -16 -80 0 -33 -7 -47 -43 -84
-24 -24 -48 -59 -53 -78 -14 -47 -41 -45 -68 6 -18 35 -21 55 -19 162 l2 121
-54 22 c-62 25 -124 86 -157 155 l-22 46 -56 -7 c-73 -9 -175 -40 -226 -69
-73 -42 -144 -139 -144 -196 0 -28 12 -24 62 21 82 72 113 70 188 -8 29 -31
60 -52 87 -60 32 -10 44 -19 49 -38 4 -14 24 -46 45 -71 31 -35 39 -52 39 -84
0 -22 11 -61 25 -89 30 -59 32 -86 6 -100 -58 -31 -141 2 -227 89 l-60 62 -45
-25 c-50 -29 -109 -33 -161 -12 -42 18 -53 11 -72 -39 -7 -22 -30 -66 -49 -98
-19 -31 -42 -85 -52 -120 -16 -60 -16 -63 5 -120 12 -32 32 -70 45 -84 21 -26
23 -26 32 -7 6 10 13 47 16 80 4 34 12 74 19 89 11 24 16 26 47 21 20 -4 61
-9 91 -12 30 -3 69 -12 87 -20 17 -8 48 -14 70 -14 32 0 45 -7 81 -45 24 -25
48 -45 53 -45 18 0 8 -40 -13 -51 -22 -12 -167 -7 -215 7 -18 5 -23 1 -28 -22
-3 -16 -19 -55 -36 -88 -29 -54 -31 -63 -24 -125 9 -89 24 -119 81 -170 66
-59 104 -81 137 -81 31 0 35 11 10 31 -27 23 -73 101 -73 126 0 24 26 43 59
43 11 0 34 12 51 26 30 26 33 27 87 14 69 -15 86 -4 60 39 -51 86 -41 237 23
368 76 155 184 213 399 213 47 0 91 4 97 8 7 4 16 37 22 75 12 78 51 170 90
210 l26 28 -18 33 c-15 29 -18 53 -15 156 l4 122 -39 34 c-97 84 -245 123
-339 90z"/>
<path d="M6047 4436 c-3 -8 -9 -41 -12 -73 l-7 -58 55 -23 c31 -13 61 -30 68
-38 21 -25 29 -15 29 36 0 64 -19 109 -59 143 -36 30 -66 35 -74 13z"/>
<path d="M4213 4404 c-8 -21 3 -96 21 -138 21 -51 56 -71 100 -56 44 14 99 77
115 131 15 48 4 67 -27 50 -32 -17 -104 -13 -147 9 -47 24 -54 25 -62 4z"/>
<path d="M10350 4361 c0 -54 22 -81 67 -81 31 0 93 61 93 92 0 23 -5 26 -52
32 -108 12 -108 12 -108 -43z"/>
<path d="M10200 4165 c0 -30 40 -119 67 -147 22 -23 35 -28 72 -28 40 0 49 5
87 45 41 42 75 117 61 132 -4 3 -18 1 -32 -5 -34 -16 -78 -15 -145 3 -72 19
-110 19 -110 0z"/>
<path d="M5996 4128 c-7 -13 -19 -41 -26 -62 -14 -42 -12 -44 58 -93 31 -22
42 -6 42 65 0 59 -11 86 -40 102 -16 8 -22 6 -34 -12z"/>
<path d="M4079 4080 c-47 -10 -106 -27 -130 -37 -117 -53 -249 -214 -249 -305
0 -29 2 -28 86 51 106 99 179 138 232 125 34 -8 37 -13 47 -59 14 -71 19 -75
82 -75 50 0 59 -4 100 -39 44 -40 56 -44 145 -56 58 -8 80 -35 53 -65 -28 -31
-146 -53 -282 -53 l-121 1 -17 -44 c-19 -50 -75 -104 -109 -104 -46 0 -66 -30
-91 -134 -53 -217 -58 -382 -16 -470 32 -65 140 -158 116 -98 -30 72 -29 204
4 332 17 71 37 86 71 55 26 -24 43 -15 86 45 31 43 40 50 70 50 58 0 102 25
132 74 15 25 33 46 41 46 8 0 40 -7 71 -16 l57 -16 72 37 c77 38 116 42 135
13 14 -24 -17 -55 -127 -130 -55 -37 -92 -69 -98 -86 -25 -64 -52 -111 -94
-162 -83 -101 -115 -200 -117 -357 -1 -96 1 -107 30 -165 17 -35 49 -81 72
-103 l42 -40 -9 40 c-13 66 -6 171 17 248 44 144 78 184 164 196 62 9 72 17
112 96 15 30 41 61 65 78 22 15 42 35 46 45 3 9 16 41 29 70 19 43 27 52 49
52 37 0 40 -22 16 -97 -33 -99 -38 -184 -16 -234 17 -38 18 -42 2 -68 -9 -16
-23 -74 -31 -129 -16 -118 -47 -192 -107 -256 -23 -26 -39 -49 -36 -53 13 -13
96 29 158 80 97 81 225 231 274 322 23 43 25 58 20 102 -5 38 -1 70 15 122
l20 70 -25 37 c-30 44 -33 101 -9 204 19 84 12 100 -56 135 -55 28 -65 42 -73
103 -6 51 -21 72 -51 72 -38 0 -58 23 -67 80 -10 62 -28 84 -84 103 -34 12
-42 20 -51 53 -13 46 -46 69 -112 79 -92 14 -122 43 -122 118 0 53 -7 57 -92
57 l-60 0 -15 40 -16 40 -81 -1 c-45 0 -120 -9 -167 -19z"/>
<path d="M10250 3916 c0 -4 7 -20 15 -37 11 -21 13 -34 6 -48 -10 -18 -68 -51
-90 -51 -18 0 -13 -18 8 -30 36 -19 115 -12 152 13 43 29 79 82 79 118 0 28
-1 29 -54 29 -29 0 -68 3 -85 6 -17 4 -31 3 -31 0z"/>
<path d="M5937 3790 c-20 -29 -51 -119 -43 -127 9 -9 65 53 72 81 3 15 2 37
-3 48 l-9 22 -17 -24z"/>
<path d="M3541 3739 c-25 -72 -4 -224 41 -298 30 -49 128 -151 145 -151 14 0
52 73 53 101 0 33 39 67 89 79 83 20 94 59 23 81 -34 10 -50 8 -115 -11 -74
-22 -76 -22 -114 -4 -51 25 -82 83 -90 168 -3 36 -9 66 -13 66 -5 0 -13 -14
-19 -31z"/>
<path d="M10095 3689 c-21 -33 23 -108 82 -138 62 -32 143 12 172 92 l10 28
-53 -6 c-40 -5 -69 -2 -120 14 -78 24 -83 25 -91 10z"/>
<path d="M1745 3606 c-134 -42 -211 -125 -266 -285 -26 -73 -24 -108 9 -172
37 -74 55 -71 64 9 4 35 12 79 18 98 15 43 71 104 97 104 23 0 48 -25 58 -58
8 -29 61 -62 97 -62 16 0 42 -13 62 -30 19 -17 49 -35 68 -42 53 -18 56 -22
51 -96 l-4 -67 50 -58 c35 -41 51 -67 51 -87 0 -22 6 -30 31 -39 51 -18 87
-14 94 10 4 12 35 58 69 103 34 44 65 87 70 94 5 8 -11 33 -43 69 -28 32 -60
76 -70 98 -11 22 -26 56 -35 76 -12 26 -33 45 -77 70 -34 19 -74 49 -90 66
-26 31 -59 115 -59 154 0 24 -11 30 -94 45 -85 17 -99 17 -151 0z"/>
<path d="M10077 3503 c-13 -23 -16 -110 -4 -133 15 -30 82 -70 118 -70 48 0
168 114 145 137 -4 4 -46 11 -93 14 -60 5 -93 12 -112 26 -40 30 -49 34 -54
26z"/>
<path d="M9956 3298 c-9 -35 -7 -107 4 -128 16 -29 74 -60 115 -60 46 0 97 30
124 74 12 18 21 36 21 38 0 3 -24 5 -54 4 -50 -1 -58 3 -115 47 -68 53 -86 57
-95 25z"/>
<path d="M4313 3203 c-40 -28 -65 -37 -106 -41 l-54 -4 -26 -54 c-33 -66 -33
-81 -4 -90 12 -4 41 -20 64 -35 23 -16 46 -29 51 -29 13 0 91 86 128 140 17
25 37 63 44 84 11 35 11 41 -6 53 -26 19 -33 17 -91 -24z"/>
<path d="M1640 3190 c-11 -21 -20 -57 -20 -80 0 -36 7 -47 70 -114 99 -104
180 -137 248 -102 36 19 38 25 17 92 -8 27 -15 62 -15 77 0 25 -8 32 -82 66
-46 21 -105 52 -132 70 -28 17 -53 31 -58 31 -4 0 -17 -18 -28 -40z"/>
<path d="M5590 3195 l-23 -25 28 -55 c15 -31 31 -58 35 -60 13 -8 20 23 20 80
0 89 -17 106 -60 60z"/>
<path d="M3613 3179 c-54 -34 -89 -97 -166 -294 -13 -35 -29 -60 -38 -60 -21
0 -23 118 -4 219 19 106 19 116 -4 116 -26 0 -97 -75 -143 -151 -78 -129 -99
-255 -74 -444 26 -201 67 -290 206 -451 113 -131 280 -270 280 -233 0 6 -18
52 -41 102 -75 168 -75 358 2 655 22 86 54 209 70 272 34 129 42 247 20 273
-18 23 -69 21 -108 -4z"/>
<path d="M5431 3075 c-34 -25 -61 -51 -61 -58 0 -8 9 -22 20 -32 24 -22 39
-66 48 -145 4 -33 12 -61 17 -62 16 -2 84 101 96 146 18 65 -13 196 -46 196
-7 0 -40 -20 -74 -45z"/>
<path d="M9533 2980 c4 -17 18 -54 32 -82 14 -28 25 -67 25 -89 0 -42 2 -44
31 -29 16 9 19 21 18 73 -1 34 -4 73 -8 86 -7 26 -42 55 -80 66 -23 7 -24 5
-18 -25z"/>
<path d="M6414 2974 c-20 -79 79 -338 154 -406 91 -82 286 -173 476 -223 292
-75 781 -37 1146 90 257 90 620 244 620 265 0 5 -11 30 -25 55 -13 26 -27 62
-31 81 -3 19 -10 37 -15 39 -4 3 -47 -11 -95 -31 -74 -30 -104 -37 -193 -43
l-106 -7 48 -24 c26 -13 47 -30 47 -37 0 -30 -161 -3 -250 42 -28 14 -50 20
-50 14 0 -6 29 -41 65 -78 36 -37 65 -71 65 -75 0 -13 -426 18 -478 35 -18 6
-36 9 -38 6 -10 -10 68 -61 119 -78 70 -24 69 -44 -3 -43 -59 1 -111 23 -216
90 -31 20 -58 33 -61 30 -9 -9 10 -45 56 -106 46 -60 47 -65 27 -73 -19 -8
-96 33 -168 88 -31 24 -59 41 -62 38 -23 -23 16 -133 54 -153 11 -6 20 -15 20
-20 0 -20 -57 -9 -189 36 -163 55 -269 105 -307 145 -33 34 -44 36 -44 9 0
-30 23 -70 59 -104 36 -34 39 -46 12 -46 -25 0 -115 61 -176 121 -28 27 -54
49 -58 49 -14 0 -7 -40 15 -85 23 -47 19 -66 -10 -49 -27 16 -121 164 -133
209 -20 74 -19 72 -31 51 -6 -11 -16 -40 -22 -65 -7 -24 -17 -46 -23 -48 -6
-2 -20 16 -32 40 -18 36 -21 62 -21 159 0 131 3 128 -92 128 -43 0 -48 -3 -54
-26z"/>
<path d="M10042 2978 c-20 -25 -18 -53 3 -56 26 -3 85 33 85 53 0 19 -73 21
-88 3z"/>
<path d="M5262 2948 c-21 -27 -42 -78 -42 -103 0 -14 11 -43 24 -64 14 -21 29
-57 36 -80 6 -22 15 -41 19 -41 5 0 20 21 33 48 34 69 32 154 -5 210 -28 43
-47 52 -65 30z"/>
<path d="M4002 2923 c-56 -49 -25 -131 46 -119 43 6 50 13 58 51 4 22 0 38
-16 58 -25 31 -59 35 -88 10z"/>
<path d="M4753 2893 c-28 -13 -63 -64 -63 -90 0 -16 -54 -59 -98 -78 -23 -10
-41 -23 -39 -29 7 -21 129 -77 161 -74 27 3 32 9 53 68 20 54 22 69 12 93 -9
21 -9 38 1 72 7 25 11 47 9 50 -3 2 -19 -3 -36 -12z"/>
<path d="M9803 2829 c-18 -5 -35 -14 -39 -20 -12 -19 38 -58 102 -79 63 -21
63 -21 106 -2 24 10 48 25 55 33 26 32 19 41 -52 60 -76 20 -122 22 -172 8z"/>
<path d="M6213 2759 c-37 -11 -63 -43 -63 -77 0 -31 -17 -62 -35 -62 -20 0
-19 -30 5 -90 11 -28 18 -61 15 -73 -12 -45 119 -140 243 -178 30 -9 42 -17
40 -28 -3 -13 -15 -15 -56 -13 -81 5 -65 -16 42 -54 22 -8 112 -21 200 -30 89
-8 166 -20 171 -26 7 -7 0 -17 -20 -32 -52 -38 -135 -119 -135 -132 0 -8 33 3
93 30 50 24 116 49 145 55 67 14 215 15 210 1 -2 -6 -32 -29 -68 -53 -61 -40
-73 -53 -102 -122 -7 -16 -31 -41 -53 -56 -50 -34 -75 -81 -75 -142 0 -42 5
-53 41 -92 53 -58 74 -59 83 -3 10 63 39 121 86 172 30 32 46 61 57 103 24 96
33 104 108 100 35 -2 69 0 76 4 7 4 21 3 32 -2 12 -7 23 -7 32 1 10 8 19 8 34
0 23 -12 26 -26 12 -63 -9 -24 -8 -25 27 -22 20 1 45 6 56 10 11 5 26 3 38 -4
15 -9 23 -9 33 -1 8 7 38 11 67 9 29 -1 61 1 71 6 10 4 31 5 47 2 16 -4 32 -2
35 3 3 6 16 10 27 10 18 0 20 -4 15 -41 l-5 -42 67 6 c37 3 91 15 121 26 30
12 62 21 71 21 9 0 24 9 34 20 10 11 28 20 40 20 13 0 29 8 36 17 22 26 90 73
107 73 11 0 13 -8 8 -32 -24 -116 -17 -135 28 -68 16 24 34 40 46 40 11 0 24
9 30 20 13 24 91 82 208 156 126 79 139 72 71 -33 -74 -114 -33 -94 125 57 57
55 108 100 115 100 7 0 11 -19 11 -50 0 -27 4 -50 8 -50 5 0 37 54 72 120 34
66 74 132 87 146 34 36 47 20 33 -38 -13 -51 -10 -120 6 -125 5 -2 17 12 26
31 9 19 44 66 77 104 34 39 61 73 61 76 0 2 -17 10 -37 16 -21 6 -88 36 -150
66 -108 54 -113 55 -155 44 -24 -6 -144 -60 -268 -120 -245 -118 -318 -147
-472 -185 -359 -91 -734 -109 -1024 -49 -113 23 -365 94 -409 114 -47 23 -157
89 -202 123 -43 32 -144 154 -179 214 -50 87 -56 91 -121 72z"/>
<path d="M9241 2744 c-36 -30 -40 -65 -11 -94 37 -37 84 -19 94 35 7 38 -2 58
-35 76 -13 7 -25 3 -48 -17z"/>
<path d="M9692 2698 c-7 -7 -12 -27 -12 -46 0 -27 8 -42 36 -68 19 -19 47 -37
62 -41 33 -8 106 11 143 38 49 34 34 59 -35 59 -42 0 -92 17 -136 47 -40 27
-42 27 -58 11z"/>
<path d="M5132 2571 c-18 -28 -32 -55 -32 -60 0 -16 51 -71 65 -71 26 0 36
131 12 164 -13 17 -16 15 -45 -33z"/>
<path d="M4000 2580 c-33 -14 -72 -19 -143 -19 l-98 -1 -16 -37 c-19 -44 -28
-130 -19 -168 16 -63 121 -83 211 -41 61 28 137 109 161 172 17 44 17 47 -1
80 -20 38 -31 40 -95 14z"/>
<path d="M9522 2478 c-31 -31 2 -89 67 -117 87 -37 193 -19 235 40 18 27 13
39 -18 39 -12 0 -55 11 -94 25 -77 27 -170 33 -190 13z"/>
<path d="M5995 2410 c-7 -12 12 -50 25 -50 14 0 21 16 14 33 -7 19 -31 29 -39
17z"/>
<path d="M9350 2388 c-33 -54 -35 -84 -8 -136 32 -64 73 -85 155 -79 59 4 142
39 150 62 2 6 -29 25 -69 44 -48 22 -88 50 -123 87 -28 30 -59 54 -68 54 -10
0 -26 -14 -37 -32z"/>
<path d="M4980 2390 c-16 -16 -18 -25 -10 -40 21 -39 50 -18 50 36 0 29 -13
31 -40 4z"/>
<path d="M4100 2312 c-44 -45 -183 -120 -265 -143 -66 -18 -79 -37 -48 -71 60
-68 207 -89 301 -42 63 31 144 118 168 179 16 43 16 46 0 64 -22 24 -78 51
-103 50 -10 0 -34 -17 -53 -37z"/>
<path d="M9207 2282 c-25 -27 -67 -124 -67 -155 0 -67 57 -128 128 -135 61 -5
151 19 189 52 l28 24 -25 10 c-133 52 -172 85 -196 167 -16 58 -30 67 -57 37z"/>
<path d="M5950 2174 c-28 -59 -50 -111 -50 -115 0 -5 10 -9 22 -9 13 0 44 24
82 63 38 40 75 69 99 76 43 15 45 20 15 48 -32 29 -62 43 -93 43 -23 0 -31
-11 -75 -106z"/>
<path d="M4297 2166 c-16 -29 -48 -77 -73 -106 -50 -58 -52 -66 -24 -73 52
-14 146 42 207 122 55 71 41 111 -36 111 -45 0 -46 -1 -74 -54z"/>
<path d="M8983 2132 c-42 -41 -64 -81 -87 -157 l-16 -50 50 -47 c65 -61 116
-73 220 -52 41 9 87 22 102 30 32 17 40 55 9 47 -10 -3 -22 0 -25 6 -4 6 -20
11 -35 11 -16 0 -34 7 -41 15 -7 8 -18 15 -25 15 -36 0 -95 119 -95 192 0 37
-13 35 -57 -10z"/>
<path d="M6119 2097 c-19 -12 -45 -44 -58 -70 -21 -43 -22 -51 -11 -92 13 -47
73 -125 95 -125 9 0 21 22 30 53 24 79 62 128 123 158 52 25 53 27 36 44 -55
54 -158 70 -215 32z"/>
<path d="M8756 1970 c-69 -61 -81 -132 -34 -208 29 -47 65 -62 150 -62 110 0
157 32 83 58 -83 28 -134 94 -135 174 0 41 -8 68 -21 68 -4 0 -24 -14 -43 -30z"/>
<path d="M6335 1950 c-44 -16 -52 -23 -64 -59 -18 -58 -7 -101 40 -155 42 -47
79 -61 79 -28 0 9 5 35 11 57 12 44 80 115 110 115 23 0 32 16 25 45 -12 45
-110 58 -201 25z"/>
<path d="M8561 1901 c-88 -16 -111 -205 -34 -274 40 -36 190 -32 187 5 -1 8
-21 41 -45 73 -41 54 -44 63 -47 132 -3 47 -8 73 -16 72 -6 -1 -26 -4 -45 -8z"/>
<path d="M8339 1832 c-53 -53 -69 -92 -69 -163 0 -56 3 -64 34 -95 32 -32 38
-34 105 -34 39 0 71 3 71 6 0 3 -13 22 -29 42 -39 50 -51 92 -51 178 0 71 -6
104 -19 104 -3 -1 -22 -17 -42 -38z"/>
<path d="M6630 1851 c-56 -9 -80 -22 -115 -63 -23 -27 -26 -39 -22 -76 7 -65
78 -132 142 -132 24 0 25 2 25 58 0 50 6 68 39 123 38 62 42 89 16 89 -7 0
-19 2 -27 4 -7 2 -33 0 -58 -3z"/>
<path d="M8107 1780 c-63 -49 -75 -132 -31 -209 45 -78 62 -91 114 -91 26 0
49 3 52 6 4 3 -8 28 -25 55 -28 45 -31 61 -36 152 -6 93 -8 102 -27 105 -11 2
-32 -7 -47 -18z"/>
<path d="M7072 1760 c-64 -39 -95 -125 -67 -185 19 -38 82 -75 131 -75 l30 0
-1 84 c0 79 2 87 33 130 17 26 32 51 32 56 0 19 -123 11 -158 -10z"/>
<path d="M7377 1766 c-21 -8 -48 -22 -59 -33 -37 -32 -78 -106 -78 -139 0 -67
88 -132 192 -141 53 -5 58 -4 58 14 0 11 -7 38 -16 59 -21 51 -13 111 26 182
16 30 27 59 24 63 -8 14 -104 10 -147 -5z"/>
<path d="M7895 1746 c-72 -34 -98 -66 -98 -120 0 -95 91 -185 173 -171 22 4
40 10 40 15 0 4 -10 20 -22 36 -20 24 -23 40 -23 114 0 47 2 98 5 115 7 39
-11 42 -75 11z"/>
<path d="M7615 1734 c-51 -33 -72 -61 -87 -117 -10 -39 -9 -49 5 -71 31 -46
95 -80 165 -84 70 -5 73 -1 46 64 -21 49 -21 139 -1 186 8 20 13 39 9 42 -3 3
-26 6 -52 6 -33 0 -57 -7 -85 -26z"/>
</g>
</svg>
